%TF.GenerationSoftware,KiCad,Pcbnew,7.0.8-7.0.8~ubuntu22.04.1*%
%TF.CreationDate,2023-10-10T13:43:41+03:00*%
%TF.ProjectId,minifp,6d696e69-6670-42e6-9b69-6361645f7063,rev?*%
%TF.SameCoordinates,Original*%
%TF.FileFunction,Soldermask,Top*%
%TF.FilePolarity,Negative*%
%FSLAX46Y46*%
G04 Gerber Fmt 4.6, Leading zero omitted, Abs format (unit mm)*
G04 Created by KiCad (PCBNEW 7.0.8-7.0.8~ubuntu22.04.1) date 2023-10-10 13:43:41*
%MOMM*%
%LPD*%
G01*
G04 APERTURE LIST*
G04 Aperture macros list*
%AMRoundRect*
0 Rectangle with rounded corners*
0 $1 Rounding radius*
0 $2 $3 $4 $5 $6 $7 $8 $9 X,Y pos of 4 corners*
0 Add a 4 corners polygon primitive as box body*
4,1,4,$2,$3,$4,$5,$6,$7,$8,$9,$2,$3,0*
0 Add four circle primitives for the rounded corners*
1,1,$1+$1,$2,$3*
1,1,$1+$1,$4,$5*
1,1,$1+$1,$6,$7*
1,1,$1+$1,$8,$9*
0 Add four rect primitives between the rounded corners*
20,1,$1+$1,$2,$3,$4,$5,0*
20,1,$1+$1,$4,$5,$6,$7,0*
20,1,$1+$1,$6,$7,$8,$9,0*
20,1,$1+$1,$8,$9,$2,$3,0*%
G04 Aperture macros list end*
%ADD10C,1.000000*%
%ADD11R,1.400000X1.000000*%
%ADD12C,1.650000*%
%ADD13C,4.575000*%
%ADD14R,1.295000X0.600000*%
%ADD15C,4.064000*%
%ADD16R,1.778000X7.620000*%
%ADD17RoundRect,0.200000X-0.275000X0.200000X-0.275000X-0.200000X0.275000X-0.200000X0.275000X0.200000X0*%
%ADD18RoundRect,0.225000X-0.250000X0.225000X-0.250000X-0.225000X0.250000X-0.225000X0.250000X0.225000X0*%
%ADD19R,2.000000X1.500000*%
%ADD20R,2.000000X3.800000*%
%ADD21RoundRect,0.225000X0.225000X0.250000X-0.225000X0.250000X-0.225000X-0.250000X0.225000X-0.250000X0*%
%ADD22R,1.700000X1.700000*%
%ADD23O,1.700000X1.700000*%
%ADD24RoundRect,0.075000X0.662500X0.075000X-0.662500X0.075000X-0.662500X-0.075000X0.662500X-0.075000X0*%
%ADD25RoundRect,0.075000X0.075000X0.662500X-0.075000X0.662500X-0.075000X-0.662500X0.075000X-0.662500X0*%
%ADD26R,1.500000X2.000000*%
%ADD27R,3.800000X2.000000*%
%ADD28R,1.000000X1.000000*%
%ADD29O,1.000000X1.000000*%
G04 APERTURE END LIST*
D10*
%TO.C,*%
X146750000Y-143500000D03*
%TD*%
%TO.C,*%
X146750000Y-140000000D03*
%TD*%
%TO.C,*%
X144230000Y-141900000D03*
%TD*%
%TO.C,*%
X141000000Y-134620000D03*
%TD*%
%TO.C,*%
X137780000Y-136770000D03*
%TD*%
%TO.C,*%
X136280000Y-136770000D03*
%TD*%
%TO.C,*%
X134780000Y-136770000D03*
%TD*%
%TO.C,*%
X151700000Y-143500000D03*
%TD*%
%TO.C,*%
X154300000Y-143500000D03*
%TD*%
%TO.C,*%
X176840000Y-144630000D03*
%TD*%
%TO.C,*%
X179280000Y-144630000D03*
%TD*%
D11*
%TO.C,Y1*%
X120910000Y-123010000D03*
X123110000Y-123010000D03*
X123110000Y-121410000D03*
X120910000Y-121410000D03*
%TD*%
D12*
%TO.C,J401*%
X199000000Y-102000000D03*
X199000000Y-104290000D03*
X199000000Y-106580000D03*
X199000000Y-108870000D03*
X199000000Y-111160000D03*
X201540000Y-100855000D03*
X201540000Y-103145000D03*
X201540000Y-105435000D03*
X201540000Y-107725000D03*
X201540000Y-110015000D03*
X204080000Y-102000000D03*
X204080000Y-104290000D03*
X204080000Y-106580000D03*
X204080000Y-108870000D03*
X204080000Y-111160000D03*
D13*
X201540000Y-93512000D03*
X201540000Y-118502000D03*
%TD*%
D14*
%TO.C,IC1*%
X119272000Y-101600000D03*
X119272000Y-102400000D03*
X119272000Y-103200000D03*
X119272000Y-104000000D03*
X119272000Y-104800000D03*
X119272000Y-105600000D03*
X119272000Y-106400000D03*
X119272000Y-107200000D03*
X119272000Y-108000000D03*
X119272000Y-108800000D03*
X119272000Y-109600000D03*
X119272000Y-110400000D03*
X119272000Y-111200000D03*
X119272000Y-112000000D03*
X119272000Y-112800000D03*
X119272000Y-113600000D03*
X119272000Y-114400000D03*
X119272000Y-115200000D03*
X119272000Y-116000000D03*
X119272000Y-116800000D03*
X119272000Y-117600000D03*
X119272000Y-118400000D03*
X130728000Y-118400000D03*
X130728000Y-117600000D03*
X130728000Y-116800000D03*
X130728000Y-116000000D03*
X130728000Y-115200000D03*
X130728000Y-114400000D03*
X130728000Y-113600000D03*
X130728000Y-112800000D03*
X130728000Y-112000000D03*
X130728000Y-111200000D03*
X130728000Y-110400000D03*
X130728000Y-109600000D03*
X130728000Y-108800000D03*
X130728000Y-108000000D03*
X130728000Y-107200000D03*
X130728000Y-106400000D03*
X130728000Y-105600000D03*
X130728000Y-104800000D03*
X130728000Y-104000000D03*
X130728000Y-103200000D03*
X130728000Y-102400000D03*
X130728000Y-101600000D03*
%TD*%
D10*
%TO.C,*%
X126135000Y-138890000D03*
%TD*%
%TO.C,*%
X137310000Y-138900000D03*
%TD*%
%TO.C,*%
X135810000Y-138900000D03*
%TD*%
D15*
%TO.C,J1*%
X210185000Y-86677500D03*
X210185000Y-143192500D03*
D16*
X188595000Y-149860000D03*
X186055000Y-149860000D03*
X183515000Y-149860000D03*
X180975000Y-149860000D03*
X178435000Y-149860000D03*
X175895000Y-149860000D03*
X173355000Y-149860000D03*
X170815000Y-149860000D03*
X168275000Y-149860000D03*
X165735000Y-149860000D03*
X163195000Y-149860000D03*
X160655000Y-149860000D03*
X158115000Y-149860000D03*
X155575000Y-149860000D03*
X153035000Y-149860000D03*
X150495000Y-149860000D03*
X147955000Y-149860000D03*
X145415000Y-149860000D03*
X142875000Y-149860000D03*
X140335000Y-149860000D03*
X137795000Y-149860000D03*
X135255000Y-149860000D03*
X132715000Y-149860000D03*
X130175000Y-149860000D03*
X127635000Y-149860000D03*
X125095000Y-149860000D03*
X122555000Y-149860000D03*
X120015000Y-149860000D03*
X117475000Y-149860000D03*
X114935000Y-149860000D03*
X112395000Y-149860000D03*
%TD*%
D10*
%TO.C,*%
X127635000Y-138900000D03*
%TD*%
%TO.C,*%
X134310000Y-138900000D03*
%TD*%
%TO.C,*%
X132810000Y-138900000D03*
%TD*%
D17*
%TO.C,R12*%
X189789000Y-105075000D03*
X189789000Y-106725000D03*
%TD*%
%TO.C,R9*%
X184989000Y-105075000D03*
X184989000Y-106725000D03*
%TD*%
D18*
%TO.C,C201*%
X166243000Y-107048000D03*
X166243000Y-108598000D03*
%TD*%
D17*
%TO.C,R6*%
X191389000Y-95695000D03*
X191389000Y-97345000D03*
%TD*%
D19*
%TO.C,U602*%
X126090000Y-132030000D03*
X126090000Y-134330000D03*
D20*
X132390000Y-134330000D03*
D19*
X126090000Y-136630000D03*
%TD*%
D17*
%TO.C,R21*%
X192989000Y-113920000D03*
X192989000Y-115570000D03*
%TD*%
%TO.C,R16*%
X184989000Y-113920000D03*
X184989000Y-115570000D03*
%TD*%
%TO.C,R1*%
X183389000Y-95695000D03*
X183389000Y-97345000D03*
%TD*%
%TO.C,R17*%
X186589000Y-113920000D03*
X186589000Y-115570000D03*
%TD*%
%TO.C,R5*%
X189789000Y-95695000D03*
X189789000Y-97345000D03*
%TD*%
%TO.C,R15*%
X183389000Y-113920000D03*
X183389000Y-115570000D03*
%TD*%
D18*
%TO.C,C202*%
X168543000Y-107048000D03*
X168543000Y-108598000D03*
%TD*%
%TO.C,C20*%
X118400000Y-121435000D03*
X118400000Y-122985000D03*
%TD*%
D17*
%TO.C,R14*%
X192989000Y-105075000D03*
X192989000Y-106725000D03*
%TD*%
D21*
%TO.C,C204*%
X123766600Y-136630000D03*
X122216600Y-136630000D03*
%TD*%
D22*
%TO.C,J4*%
X162000000Y-87000000D03*
D23*
X162000000Y-89540000D03*
X159460000Y-87000000D03*
X159460000Y-89540000D03*
X156920000Y-87000000D03*
X156920000Y-89540000D03*
X154380000Y-87000000D03*
X154380000Y-89540000D03*
X151840000Y-87000000D03*
X151840000Y-89540000D03*
X149300000Y-87000000D03*
X149300000Y-89540000D03*
X146760000Y-87000000D03*
X146760000Y-89540000D03*
X144220000Y-87000000D03*
X144220000Y-89540000D03*
X141680000Y-87000000D03*
X141680000Y-89540000D03*
X139140000Y-87000000D03*
X139140000Y-89540000D03*
X136600000Y-87000000D03*
X136600000Y-89540000D03*
X134060000Y-87000000D03*
X134060000Y-89540000D03*
X131520000Y-87000000D03*
X131520000Y-89540000D03*
X128980000Y-87000000D03*
X128980000Y-89540000D03*
X126440000Y-87000000D03*
X126440000Y-89540000D03*
X123900000Y-87000000D03*
X123900000Y-89540000D03*
X121360000Y-87000000D03*
X121360000Y-89540000D03*
X118820000Y-87000000D03*
X118820000Y-89540000D03*
X116280000Y-87000000D03*
X116280000Y-89540000D03*
X113740000Y-87000000D03*
X113740000Y-89540000D03*
%TD*%
D17*
%TO.C,R8*%
X183389000Y-105075000D03*
X183389000Y-106725000D03*
%TD*%
%TO.C,R7*%
X192989000Y-95695000D03*
X192989000Y-97345000D03*
%TD*%
%TO.C,R19*%
X189789000Y-113920000D03*
X189789000Y-115570000D03*
%TD*%
%TO.C,R13*%
X191389000Y-105075000D03*
X191389000Y-106725000D03*
%TD*%
%TO.C,R4*%
X188189000Y-95695000D03*
X188189000Y-97345000D03*
%TD*%
%TO.C,R20*%
X191389000Y-113920000D03*
X191389000Y-115570000D03*
%TD*%
D24*
%TO.C,U2*%
X160192500Y-128750000D03*
X160192500Y-128250000D03*
X160192500Y-127750000D03*
X160192500Y-127250000D03*
X160192500Y-126750000D03*
X160192500Y-126250000D03*
X160192500Y-125750000D03*
X160192500Y-125250000D03*
X160192500Y-124750000D03*
X160192500Y-124250000D03*
X160192500Y-123750000D03*
X160192500Y-123250000D03*
X160192500Y-122750000D03*
X160192500Y-122250000D03*
X160192500Y-121750000D03*
X160192500Y-121250000D03*
X160192500Y-120750000D03*
X160192500Y-120250000D03*
X160192500Y-119750000D03*
X160192500Y-119250000D03*
X160192500Y-118750000D03*
X160192500Y-118250000D03*
X160192500Y-117750000D03*
X160192500Y-117250000D03*
X160192500Y-116750000D03*
X160192500Y-116250000D03*
X160192500Y-115750000D03*
X160192500Y-115250000D03*
X160192500Y-114750000D03*
X160192500Y-114250000D03*
X160192500Y-113750000D03*
X160192500Y-113250000D03*
X160192500Y-112750000D03*
X160192500Y-112250000D03*
X160192500Y-111750000D03*
X160192500Y-111250000D03*
D25*
X158280000Y-109337500D03*
X157780000Y-109337500D03*
X157280000Y-109337500D03*
X156780000Y-109337500D03*
X156280000Y-109337500D03*
X155780000Y-109337500D03*
X155280000Y-109337500D03*
X154780000Y-109337500D03*
X154280000Y-109337500D03*
X153780000Y-109337500D03*
X153280000Y-109337500D03*
X152780000Y-109337500D03*
X152280000Y-109337500D03*
X151780000Y-109337500D03*
X151280000Y-109337500D03*
X150780000Y-109337500D03*
X150280000Y-109337500D03*
X149780000Y-109337500D03*
X149280000Y-109337500D03*
X148780000Y-109337500D03*
X148280000Y-109337500D03*
X147780000Y-109337500D03*
X147280000Y-109337500D03*
X146780000Y-109337500D03*
X146280000Y-109337500D03*
X145780000Y-109337500D03*
X145280000Y-109337500D03*
X144780000Y-109337500D03*
X144280000Y-109337500D03*
X143780000Y-109337500D03*
X143280000Y-109337500D03*
X142780000Y-109337500D03*
X142280000Y-109337500D03*
X141780000Y-109337500D03*
X141280000Y-109337500D03*
X140780000Y-109337500D03*
D24*
X138867500Y-111250000D03*
X138867500Y-111750000D03*
X138867500Y-112250000D03*
X138867500Y-112750000D03*
X138867500Y-113250000D03*
X138867500Y-113750000D03*
X138867500Y-114250000D03*
X138867500Y-114750000D03*
X138867500Y-115250000D03*
X138867500Y-115750000D03*
X138867500Y-116250000D03*
X138867500Y-116750000D03*
X138867500Y-117250000D03*
X138867500Y-117750000D03*
X138867500Y-118250000D03*
X138867500Y-118750000D03*
X138867500Y-119250000D03*
X138867500Y-119750000D03*
X138867500Y-120250000D03*
X138867500Y-120750000D03*
X138867500Y-121250000D03*
X138867500Y-121750000D03*
X138867500Y-122250000D03*
X138867500Y-122750000D03*
X138867500Y-123250000D03*
X138867500Y-123750000D03*
X138867500Y-124250000D03*
X138867500Y-124750000D03*
X138867500Y-125250000D03*
X138867500Y-125750000D03*
X138867500Y-126250000D03*
X138867500Y-126750000D03*
X138867500Y-127250000D03*
X138867500Y-127750000D03*
X138867500Y-128250000D03*
X138867500Y-128750000D03*
D25*
X140780000Y-130662500D03*
X141280000Y-130662500D03*
X141780000Y-130662500D03*
X142280000Y-130662500D03*
X142780000Y-130662500D03*
X143280000Y-130662500D03*
X143780000Y-130662500D03*
X144280000Y-130662500D03*
X144780000Y-130662500D03*
X145280000Y-130662500D03*
X145780000Y-130662500D03*
X146280000Y-130662500D03*
X146780000Y-130662500D03*
X147280000Y-130662500D03*
X147780000Y-130662500D03*
X148280000Y-130662500D03*
X148780000Y-130662500D03*
X149280000Y-130662500D03*
X149780000Y-130662500D03*
X150280000Y-130662500D03*
X150780000Y-130662500D03*
X151280000Y-130662500D03*
X151780000Y-130662500D03*
X152280000Y-130662500D03*
X152780000Y-130662500D03*
X153280000Y-130662500D03*
X153780000Y-130662500D03*
X154280000Y-130662500D03*
X154780000Y-130662500D03*
X155280000Y-130662500D03*
X155780000Y-130662500D03*
X156280000Y-130662500D03*
X156780000Y-130662500D03*
X157280000Y-130662500D03*
X157780000Y-130662500D03*
X158280000Y-130662500D03*
%TD*%
D17*
%TO.C,R2*%
X184989000Y-95695000D03*
X184989000Y-97345000D03*
%TD*%
D21*
%TO.C,C203*%
X123766600Y-134330000D03*
X122216600Y-134330000D03*
%TD*%
D26*
%TO.C,U601*%
X163943000Y-104750000D03*
X166243000Y-104750000D03*
D27*
X166243000Y-98450000D03*
D26*
X168543000Y-104750000D03*
%TD*%
D17*
%TO.C,R3*%
X186589000Y-95695000D03*
X186589000Y-97345000D03*
%TD*%
%TO.C,R18*%
X188189000Y-113920000D03*
X188189000Y-115570000D03*
%TD*%
D28*
%TO.C,J2*%
X125750000Y-95250000D03*
D29*
X125750000Y-93980000D03*
X127020000Y-95250000D03*
X127020000Y-93980000D03*
X128290000Y-95250000D03*
X128290000Y-93980000D03*
X129560000Y-95250000D03*
X129560000Y-93980000D03*
X130830000Y-95250000D03*
X130830000Y-93980000D03*
X132100000Y-95250000D03*
X132100000Y-93980000D03*
X133370000Y-95250000D03*
X133370000Y-93980000D03*
X134640000Y-95250000D03*
X134640000Y-93980000D03*
%TD*%
D17*
%TO.C,R11*%
X188189000Y-105075000D03*
X188189000Y-106725000D03*
%TD*%
%TO.C,R10*%
X186589000Y-105075000D03*
X186589000Y-106725000D03*
%TD*%
M02*
