M48
; DRILL file {KiCad 7.0.8-7.0.8~ubuntu22.04.1} date ti 10. lokakuuta 2023 13.43.44
; FORMAT={-:-/ absolute / inch / decimal}
; #@! TF.CreationDate,2023-10-10T13:43:44+03:00
; #@! TF.GenerationSoftware,Kicad,Pcbnew,7.0.8-7.0.8~ubuntu22.04.1
; #@! TF.FileFunction,Plated,1,2,PTH
FMAT,2
INCH
; #@! TA.AperFunction,Plated,PTH,ViaDrill
T1C0.0118
; #@! TA.AperFunction,Plated,PTH,ViaDrill
T2C0.0197
; #@! TA.AperFunction,Plated,PTH,ComponentDrill
T3C0.0197
; #@! TA.AperFunction,Plated,PTH,ComponentDrill
T4C0.0256
; #@! TA.AperFunction,Plated,PTH,ComponentDrill
T5C0.0394
; #@! TA.AperFunction,Plated,PTH,ComponentDrill
T6C0.0433
; #@! TA.AperFunction,Plated,PTH,ComponentDrill
T7C0.1200
; #@! TA.AperFunction,Plated,PTH,ComponentDrill
T8C0.1201
%
G90
G05
T1
X4.645Y-4.315
X4.755Y-4.3465
X5.09Y-4.315
X5.5Y-5.3
X5.5039Y-4.3046
X5.52Y-4.6358
X5.52Y-4.6949
X5.52Y-4.7539
X5.52Y-4.9114
X5.52Y-4.9705
X5.525Y-3.8522
X5.525Y-4.185
X5.5425Y-5.07
X5.5622Y-3.8522
X5.5622Y-4.22
X5.5917Y-3.8167
X5.5917Y-4.18
X5.6Y-5.3
X5.6016Y-4.36
X5.6213Y-3.8522
X5.6213Y-4.22
X5.67Y-3.8522
X5.67Y-4.18
X5.7394Y-3.6772
X5.7835Y-4.36
X5.8181Y-5.09
X5.8264Y-3.5846
X5.8378Y-4.36
X5.965Y-5.09
X6.0039Y-5.09
X6.0543Y-4.36
X6.1142Y-5.45
X6.1417Y-4.36
X6.1528Y-5.09
X6.175Y-5.45
X6.2087Y-4.7244
X6.2205Y-4.36
X6.25Y-4.498
X6.25Y-4.5571
X6.25Y-4.8091
X6.25Y-4.8366
X6.25Y-4.96
X6.25Y-5.0
X6.275Y-5.5
X6.3484Y-4.1913
X6.3661Y-4.4094
X6.375Y-5.55
X6.3878Y-4.1717
X6.3976Y-4.4291
X7.325Y-5.614
T2
X4.4291Y-3.7402
X4.4291Y-3.937
X4.4291Y-4.1339
X4.4291Y-4.3307
X4.4291Y-4.5276
X4.4291Y-4.7244
X4.4291Y-4.9213
X4.4291Y-5.1181
X4.4291Y-5.315
X4.625Y-5.575
X4.626Y-5.1181
X4.685Y-5.4429
X4.685Y-5.502
X4.7031Y-4.8776
X4.7441Y-5.3839
X4.7441Y-5.4429
X4.7441Y-5.502
X4.7638Y-3.937
X4.7638Y-4.0157
X4.8031Y-5.4429
X4.8425Y-3.8583
X4.8425Y-3.937
X4.8819Y-5.2264
X4.9083Y-4.8776
X4.9213Y-3.8583
X4.9606Y-4.252
X4.9606Y-4.4488
X5.0394Y-4.1732
X5.0394Y-4.252
X5.0394Y-4.4488
X5.0394Y-4.5276
X5.0591Y-5.1772
X5.0591Y-5.2362
X5.1181Y-5.1772
X5.1181Y-5.2362
X5.313Y-5.0237
X5.328Y-3.3642
X5.4331Y-4.2323
X5.4528Y-3.8307
X5.4921Y-4.2323
X5.5118Y-5.2165
X5.5793Y-5.0237
X5.7913Y-3.8016
X6.0823Y-4.5031
X6.1772Y-3.626
X6.1772Y-3.7047
X6.1799Y-4.4055
X6.2992Y-3.7402
X6.2992Y-3.937
X6.2992Y-4.2323
X6.2992Y-5.2165
X6.3858Y-3.9606
X6.3858Y-4.0394
X6.3858Y-4.1181
X6.3976Y-5.315
X6.4646Y-3.9606
X6.4646Y-4.0394
X6.4961Y-3.3465
X6.4961Y-3.7402
X6.4961Y-4.3307
X6.4961Y-5.4134
X6.6929Y-3.3465
X6.6929Y-3.7402
X6.6929Y-4.3307
X6.8898Y-3.3465
X6.8898Y-3.7402
X6.8898Y-3.937
X6.8898Y-4.1339
X7.0866Y-3.3465
X7.0866Y-3.7402
X7.0866Y-3.937
X7.0866Y-5.1181
X7.225Y-5.3581
X7.2835Y-3.3465
X7.4803Y-3.3465
X7.4803Y-5.315
X7.4803Y-5.5118
X7.6772Y-3.3465
X7.6772Y-3.7402
X7.6772Y-4.5276
X7.6772Y-4.9213
X7.6772Y-5.315
X7.6772Y-5.5118
X7.874Y-3.3465
X7.874Y-4.9213
X7.874Y-5.315
X7.874Y-5.5118
X8.0709Y-3.3465
X8.0709Y-5.1181
X8.0709Y-5.315
X8.0709Y-5.5118
X8.2677Y-3.5433
X8.2677Y-3.7402
X8.2677Y-3.937
X8.2677Y-4.1339
X8.2677Y-4.3307
X8.2677Y-4.5276
X8.2677Y-4.7244
X8.2677Y-4.9213
X8.2677Y-5.1181
X8.2677Y-5.315
T3
X4.9659Y-5.4681
X5.025Y-5.4685
X5.2287Y-5.4685
X5.2878Y-5.4685
X5.3063Y-5.3846
X5.3469Y-5.4685
X5.3654Y-5.3846
X5.4059Y-5.4685
X5.4244Y-5.3846
X5.5512Y-5.3
X5.6783Y-5.5866
X5.7776Y-5.5118
X5.7776Y-5.6496
X5.9724Y-5.6496
X6.0748Y-5.6496
X6.9622Y-5.6941
X7.0583Y-5.6941
T4
X4.9508Y-3.7
X4.9508Y-3.75
X5.0008Y-3.7
X5.0008Y-3.75
X5.0508Y-3.7
X5.0508Y-3.75
X5.1008Y-3.7
X5.1008Y-3.75
X5.1508Y-3.7
X5.1508Y-3.75
X5.2008Y-3.7
X5.2008Y-3.75
X5.2508Y-3.7
X5.2508Y-3.75
X5.3008Y-3.7
X5.3008Y-3.75
T5
X4.478Y-3.4252
X4.478Y-3.5252
X4.578Y-3.4252
X4.578Y-3.5252
X4.678Y-3.4252
X4.678Y-3.5252
X4.778Y-3.4252
X4.778Y-3.5252
X4.878Y-3.4252
X4.878Y-3.5252
X4.978Y-3.4252
X4.978Y-3.5252
X5.078Y-3.4252
X5.078Y-3.5252
X5.178Y-3.4252
X5.178Y-3.5252
X5.278Y-3.4252
X5.278Y-3.5252
X5.378Y-3.4252
X5.378Y-3.5252
X5.478Y-3.4252
X5.478Y-3.5252
X5.578Y-3.4252
X5.578Y-3.5252
X5.678Y-3.4252
X5.678Y-3.5252
X5.778Y-3.4252
X5.778Y-3.5252
X5.878Y-3.4252
X5.878Y-3.5252
X5.978Y-3.4252
X5.978Y-3.5252
X6.078Y-3.4252
X6.078Y-3.5252
X6.178Y-3.4252
X6.178Y-3.5252
X6.278Y-3.4252
X6.278Y-3.5252
X6.378Y-3.4252
X6.378Y-3.5252
T6
X7.8346Y-4.0157
X7.8346Y-4.1059
X7.8346Y-4.1961
X7.8346Y-4.2862
X7.8346Y-4.3764
X7.9346Y-3.9707
X7.9346Y-4.0608
X7.9346Y-4.151
X7.9346Y-4.2411
X7.9346Y-4.3313
X8.0346Y-4.0157
X8.0346Y-4.1059
X8.0346Y-4.1961
X8.0346Y-4.2862
X8.0346Y-4.3764
T7
X8.275Y-3.4125
X8.275Y-5.6375
T8
X7.9346Y-3.6816
X7.9346Y-4.6654
T0
M30
