%TF.GenerationSoftware,KiCad,Pcbnew,7.0.8-7.0.8~ubuntu22.04.1*%
%TF.CreationDate,2023-10-10T13:43:40+03:00*%
%TF.ProjectId,minifp,6d696e69-6670-42e6-9b69-6361645f7063,rev?*%
%TF.SameCoordinates,Original*%
%TF.FileFunction,Legend,Top*%
%TF.FilePolarity,Positive*%
%FSLAX46Y46*%
G04 Gerber Fmt 4.6, Leading zero omitted, Abs format (unit mm)*
G04 Created by KiCad (PCBNEW 7.0.8-7.0.8~ubuntu22.04.1) date 2023-10-10 13:43:40*
%MOMM*%
%LPD*%
G01*
G04 APERTURE LIST*
%ADD10C,0.200000*%
%ADD11C,0.100000*%
%ADD12C,0.700000*%
%ADD13C,0.254000*%
%ADD14C,0.304800*%
%ADD15C,0.381000*%
%ADD16C,0.120000*%
%ADD17C,1.000000*%
%ADD18C,4.064000*%
G04 APERTURE END LIST*
D10*
%TO.C,Y1*%
X120910000Y-124210000D02*
X120910000Y-124210000D01*
X120910000Y-124110000D02*
X120910000Y-124110000D01*
X120910000Y-124210000D02*
X120910000Y-124210000D01*
X120910000Y-124210000D02*
G75*
G03*
X120910000Y-124110000I0J50000D01*
G01*
X120910000Y-124110000D02*
G75*
G03*
X120910000Y-124210000I0J-50000D01*
G01*
X120910000Y-124210000D02*
G75*
G03*
X120910000Y-124110000I0J50000D01*
G01*
D11*
%TO.C,J401*%
X212970000Y-121413000D02*
X212970000Y-90602000D01*
X212970000Y-90602000D02*
X196550000Y-90602000D01*
X196550000Y-90602000D02*
X196550000Y-121413000D01*
X196550000Y-121413000D02*
X212970000Y-121413000D01*
D12*
X195000000Y-102000000D02*
X195000000Y-102000000D01*
X195000000Y-101900000D02*
X195000000Y-101900000D01*
X195000000Y-102000000D02*
G75*
G03*
X195000000Y-101900000I0J50000D01*
G01*
X195000000Y-101900000D02*
G75*
G03*
X195000000Y-102000000I0J-50000D01*
G01*
D10*
%TO.C,IC1*%
X120270000Y-100795000D02*
X129730000Y-100795000D01*
X129730000Y-100795000D02*
X129730000Y-119205000D01*
X129730000Y-119205000D02*
X120270000Y-119205000D01*
X120270000Y-119205000D02*
X120270000Y-100795000D01*
X118625000Y-100950000D02*
X119920000Y-100950000D01*
D13*
%TO.C,J1*%
X109855000Y-153670000D02*
X109855000Y-144780000D01*
X191135000Y-144780000D02*
X109855000Y-144780000D01*
X191135000Y-144780000D02*
X191135000Y-153670000D01*
D14*
X191135000Y-153670000D02*
X109855000Y-153670000D01*
D15*
X212471000Y-86677500D02*
G75*
G03*
X212471000Y-86677500I-2286000J0D01*
G01*
X212471000Y-143192500D02*
G75*
G03*
X212471000Y-143192500I-2286000J0D01*
G01*
D16*
%TO.C,R12*%
X190311500Y-105662742D02*
X190311500Y-106137258D01*
X189266500Y-105662742D02*
X189266500Y-106137258D01*
%TO.C,R9*%
X185511500Y-105662742D02*
X185511500Y-106137258D01*
X184466500Y-105662742D02*
X184466500Y-106137258D01*
%TO.C,C201*%
X166753000Y-107682420D02*
X166753000Y-107963580D01*
X165733000Y-107682420D02*
X165733000Y-107963580D01*
%TO.C,R6*%
X191911500Y-96282742D02*
X191911500Y-96757258D01*
X190866500Y-96282742D02*
X190866500Y-96757258D01*
%TO.C,U602*%
X125140000Y-130920000D02*
X131150000Y-130920000D01*
X127390000Y-137740000D02*
X131150000Y-137740000D01*
X131150000Y-130920000D02*
X131150000Y-132180000D01*
X131150000Y-137740000D02*
X131150000Y-136480000D01*
%TO.C,R21*%
X193511500Y-114507742D02*
X193511500Y-114982258D01*
X192466500Y-114507742D02*
X192466500Y-114982258D01*
%TO.C,R16*%
X185511500Y-114507742D02*
X185511500Y-114982258D01*
X184466500Y-114507742D02*
X184466500Y-114982258D01*
%TO.C,R1*%
X183911500Y-96282742D02*
X183911500Y-96757258D01*
X182866500Y-96282742D02*
X182866500Y-96757258D01*
%TO.C,R17*%
X187111500Y-114507742D02*
X187111500Y-114982258D01*
X186066500Y-114507742D02*
X186066500Y-114982258D01*
%TO.C,R5*%
X190311500Y-96282742D02*
X190311500Y-96757258D01*
X189266500Y-96282742D02*
X189266500Y-96757258D01*
%TO.C,R15*%
X183911500Y-114507742D02*
X183911500Y-114982258D01*
X182866500Y-114507742D02*
X182866500Y-114982258D01*
%TO.C,C202*%
X169053000Y-107682420D02*
X169053000Y-107963580D01*
X168033000Y-107682420D02*
X168033000Y-107963580D01*
%TO.C,C20*%
X118910000Y-122069420D02*
X118910000Y-122350580D01*
X117890000Y-122069420D02*
X117890000Y-122350580D01*
%TO.C,R14*%
X193511500Y-105662742D02*
X193511500Y-106137258D01*
X192466500Y-105662742D02*
X192466500Y-106137258D01*
%TO.C,C204*%
X123132180Y-137140000D02*
X122851020Y-137140000D01*
X123132180Y-136120000D02*
X122851020Y-136120000D01*
%TO.C,J4*%
X163330000Y-85670000D02*
X163330000Y-87000000D01*
X162000000Y-85670000D02*
X163330000Y-85670000D01*
X160730000Y-85670000D02*
X112410000Y-85670000D01*
X160730000Y-85670000D02*
X160730000Y-88270000D01*
X112410000Y-85670000D02*
X112410000Y-90870000D01*
X163330000Y-88270000D02*
X163330000Y-90870000D01*
X160730000Y-88270000D02*
X163330000Y-88270000D01*
X163330000Y-90870000D02*
X112410000Y-90870000D01*
%TO.C,R8*%
X183911500Y-105662742D02*
X183911500Y-106137258D01*
X182866500Y-105662742D02*
X182866500Y-106137258D01*
%TO.C,R7*%
X193511500Y-96282742D02*
X193511500Y-96757258D01*
X192466500Y-96282742D02*
X192466500Y-96757258D01*
%TO.C,R19*%
X190311500Y-114507742D02*
X190311500Y-114982258D01*
X189266500Y-114507742D02*
X189266500Y-114982258D01*
%TO.C,R13*%
X191911500Y-105662742D02*
X191911500Y-106137258D01*
X190866500Y-105662742D02*
X190866500Y-106137258D01*
%TO.C,R4*%
X188711500Y-96282742D02*
X188711500Y-96757258D01*
X187666500Y-96282742D02*
X187666500Y-96757258D01*
%TO.C,R20*%
X191911500Y-114507742D02*
X191911500Y-114982258D01*
X190866500Y-114507742D02*
X190866500Y-114982258D01*
%TO.C,U2*%
X159640000Y-130110000D02*
X159640000Y-129160000D01*
X159640000Y-129160000D02*
X160930000Y-129160000D01*
X159640000Y-109890000D02*
X159640000Y-110840000D01*
X158690000Y-130110000D02*
X159640000Y-130110000D01*
X158690000Y-109890000D02*
X159640000Y-109890000D01*
X140370000Y-130110000D02*
X139420000Y-130110000D01*
X140370000Y-109890000D02*
X139420000Y-109890000D01*
X139420000Y-130110000D02*
X139420000Y-129160000D01*
X139420000Y-109890000D02*
X139420000Y-110840000D01*
%TO.C,R2*%
X185511500Y-96282742D02*
X185511500Y-96757258D01*
X184466500Y-96282742D02*
X184466500Y-96757258D01*
%TO.C,C203*%
X123132180Y-134840000D02*
X122851020Y-134840000D01*
X123132180Y-133820000D02*
X122851020Y-133820000D01*
%TO.C,U601*%
X162833000Y-105700000D02*
X162833000Y-99690000D01*
X169653000Y-103450000D02*
X169653000Y-99690000D01*
X162833000Y-99690000D02*
X164093000Y-99690000D01*
X169653000Y-99690000D02*
X168393000Y-99690000D01*
%TO.C,R3*%
X187111500Y-96282742D02*
X187111500Y-96757258D01*
X186066500Y-96282742D02*
X186066500Y-96757258D01*
%TO.C,R18*%
X188711500Y-114507742D02*
X188711500Y-114982258D01*
X187666500Y-114507742D02*
X187666500Y-114982258D01*
%TO.C,J2*%
X124990000Y-96380000D02*
X124990000Y-95250000D01*
X125750000Y-96380000D02*
X124990000Y-96380000D01*
X126510000Y-96380000D02*
X135335000Y-96380000D01*
X126510000Y-96380000D02*
X126510000Y-95813471D01*
X135335000Y-96380000D02*
X135335000Y-95557530D01*
X135335000Y-94942470D02*
X135335000Y-94287530D01*
X126510000Y-94686529D02*
X126510000Y-94543471D01*
X125055000Y-94490000D02*
X125055000Y-94287530D01*
X125186529Y-94490000D02*
X125055000Y-94490000D01*
X126456529Y-94490000D02*
X126313471Y-94490000D01*
X125055000Y-93672470D02*
X125055000Y-92850000D01*
X135335000Y-93672470D02*
X135335000Y-92850000D01*
X125055000Y-92850000D02*
X135335000Y-92850000D01*
%TO.C,R11*%
X188711500Y-105662742D02*
X188711500Y-106137258D01*
X187666500Y-105662742D02*
X187666500Y-106137258D01*
%TO.C,R10*%
X187111500Y-105662742D02*
X187111500Y-106137258D01*
X186066500Y-105662742D02*
X186066500Y-106137258D01*
%TD*%
D17*
%TO.C,*%
X146750000Y-143500000D03*
%TD*%
%TO.C,*%
X146750000Y-140000000D03*
%TD*%
%TO.C,*%
X144230000Y-141900000D03*
%TD*%
%TO.C,*%
X141000000Y-134620000D03*
%TD*%
%TO.C,*%
X137780000Y-136770000D03*
%TD*%
%TO.C,*%
X136280000Y-136770000D03*
%TD*%
%TO.C,*%
X134780000Y-136770000D03*
%TD*%
%TO.C,*%
X151700000Y-143500000D03*
%TD*%
%TO.C,*%
X154300000Y-143500000D03*
%TD*%
%TO.C,*%
X176840000Y-144630000D03*
%TD*%
%TO.C,*%
X179280000Y-144630000D03*
%TD*%
%TO.C,*%
X126135000Y-138890000D03*
%TD*%
%TO.C,*%
X137310000Y-138900000D03*
%TD*%
%TO.C,*%
X135810000Y-138900000D03*
%TD*%
D18*
%TO.C,J1*%
X210185000Y-86677500D03*
X210185000Y-143192500D03*
%TD*%
D17*
%TO.C,*%
X127635000Y-138900000D03*
%TD*%
%TO.C,*%
X134310000Y-138900000D03*
%TD*%
%TO.C,*%
X132810000Y-138900000D03*
%TD*%
M02*
