%TF.GenerationSoftware,KiCad,Pcbnew,7.0.8-7.0.8~ubuntu22.04.1*%
%TF.CreationDate,2023-10-10T13:43:41+03:00*%
%TF.ProjectId,minifp,6d696e69-6670-42e6-9b69-6361645f7063,rev?*%
%TF.SameCoordinates,Original*%
%TF.FileFunction,Soldermask,Bot*%
%TF.FilePolarity,Negative*%
%FSLAX46Y46*%
G04 Gerber Fmt 4.6, Leading zero omitted, Abs format (unit mm)*
G04 Created by KiCad (PCBNEW 7.0.8-7.0.8~ubuntu22.04.1) date 2023-10-10 13:43:41*
%MOMM*%
%LPD*%
G01*
G04 APERTURE LIST*
G04 Aperture macros list*
%AMRoundRect*
0 Rectangle with rounded corners*
0 $1 Rounding radius*
0 $2 $3 $4 $5 $6 $7 $8 $9 X,Y pos of 4 corners*
0 Add a 4 corners polygon primitive as box body*
4,1,4,$2,$3,$4,$5,$6,$7,$8,$9,$2,$3,0*
0 Add four circle primitives for the rounded corners*
1,1,$1+$1,$2,$3*
1,1,$1+$1,$4,$5*
1,1,$1+$1,$6,$7*
1,1,$1+$1,$8,$9*
0 Add four rect primitives between the rounded corners*
20,1,$1+$1,$2,$3,$4,$5,0*
20,1,$1+$1,$4,$5,$6,$7,0*
20,1,$1+$1,$6,$7,$8,$9,0*
20,1,$1+$1,$8,$9,$2,$3,0*%
G04 Aperture macros list end*
%ADD10C,1.000000*%
%ADD11C,1.650000*%
%ADD12C,4.575000*%
%ADD13R,1.778000X7.620000*%
%ADD14C,4.064000*%
%ADD15R,1.700000X1.700000*%
%ADD16O,1.700000X1.700000*%
%ADD17R,1.000000X1.000000*%
%ADD18O,1.000000X1.000000*%
%ADD19RoundRect,0.225000X0.225000X0.250000X-0.225000X0.250000X-0.225000X-0.250000X0.225000X-0.250000X0*%
%ADD20RoundRect,0.225000X-0.225000X-0.250000X0.225000X-0.250000X0.225000X0.250000X-0.225000X0.250000X0*%
%ADD21RoundRect,0.225000X-0.250000X0.225000X-0.250000X-0.225000X0.250000X-0.225000X0.250000X0.225000X0*%
%ADD22RoundRect,0.225000X0.250000X-0.225000X0.250000X0.225000X-0.250000X0.225000X-0.250000X-0.225000X0*%
G04 APERTURE END LIST*
D10*
%TO.C,*%
X146750000Y-143500000D03*
%TD*%
%TO.C,*%
X146750000Y-140000000D03*
%TD*%
%TO.C,*%
X144230000Y-141900000D03*
%TD*%
%TO.C,*%
X141000000Y-134620000D03*
%TD*%
%TO.C,*%
X137780000Y-136770000D03*
%TD*%
%TO.C,*%
X136280000Y-136770000D03*
%TD*%
%TO.C,*%
X134780000Y-136770000D03*
%TD*%
%TO.C,*%
X151700000Y-143500000D03*
%TD*%
%TO.C,*%
X154300000Y-143500000D03*
%TD*%
%TO.C,*%
X176840000Y-144630000D03*
%TD*%
%TO.C,*%
X179280000Y-144630000D03*
%TD*%
D11*
%TO.C,J401*%
X199000000Y-102000000D03*
X199000000Y-104290000D03*
X199000000Y-106580000D03*
X199000000Y-108870000D03*
X199000000Y-111160000D03*
X201540000Y-100855000D03*
X201540000Y-103145000D03*
X201540000Y-105435000D03*
X201540000Y-107725000D03*
X201540000Y-110015000D03*
X204080000Y-102000000D03*
X204080000Y-104290000D03*
X204080000Y-106580000D03*
X204080000Y-108870000D03*
X204080000Y-111160000D03*
D12*
X201540000Y-93512000D03*
X201540000Y-118502000D03*
%TD*%
D10*
%TO.C,*%
X126135000Y-138890000D03*
%TD*%
%TO.C,*%
X137310000Y-138900000D03*
%TD*%
%TO.C,*%
X135810000Y-138900000D03*
%TD*%
D13*
%TO.C,J1*%
X188595000Y-149860000D03*
D14*
X210185000Y-86677500D03*
X210185000Y-143192500D03*
D13*
X186055000Y-149860000D03*
X183515000Y-149860000D03*
X180975000Y-149860000D03*
X178435000Y-149860000D03*
X175895000Y-149860000D03*
X173355000Y-149860000D03*
X170815000Y-149860000D03*
X168275000Y-149860000D03*
X165735000Y-149860000D03*
X163195000Y-149860000D03*
X160655000Y-149860000D03*
X158115000Y-149860000D03*
X155575000Y-149860000D03*
X153035000Y-149860000D03*
X150495000Y-149860000D03*
X147955000Y-149860000D03*
X145415000Y-149860000D03*
X142875000Y-149860000D03*
X140335000Y-149860000D03*
X137795000Y-149860000D03*
X135255000Y-149860000D03*
X132715000Y-149860000D03*
X130175000Y-149860000D03*
X127635000Y-149860000D03*
X125095000Y-149860000D03*
X122555000Y-149860000D03*
X120015000Y-149860000D03*
X117475000Y-149860000D03*
X114935000Y-149860000D03*
X112395000Y-149860000D03*
%TD*%
D10*
%TO.C,*%
X127635000Y-138900000D03*
%TD*%
%TO.C,*%
X134310000Y-138900000D03*
%TD*%
%TO.C,*%
X132810000Y-138900000D03*
%TD*%
D15*
%TO.C,J4*%
X162000000Y-87000000D03*
D16*
X162000000Y-89540000D03*
X159460000Y-87000000D03*
X159460000Y-89540000D03*
X156920000Y-87000000D03*
X156920000Y-89540000D03*
X154380000Y-87000000D03*
X154380000Y-89540000D03*
X151840000Y-87000000D03*
X151840000Y-89540000D03*
X149300000Y-87000000D03*
X149300000Y-89540000D03*
X146760000Y-87000000D03*
X146760000Y-89540000D03*
X144220000Y-87000000D03*
X144220000Y-89540000D03*
X141680000Y-87000000D03*
X141680000Y-89540000D03*
X139140000Y-87000000D03*
X139140000Y-89540000D03*
X136600000Y-87000000D03*
X136600000Y-89540000D03*
X134060000Y-87000000D03*
X134060000Y-89540000D03*
X131520000Y-87000000D03*
X131520000Y-89540000D03*
X128980000Y-87000000D03*
X128980000Y-89540000D03*
X126440000Y-87000000D03*
X126440000Y-89540000D03*
X123900000Y-87000000D03*
X123900000Y-89540000D03*
X121360000Y-87000000D03*
X121360000Y-89540000D03*
X118820000Y-87000000D03*
X118820000Y-89540000D03*
X116280000Y-87000000D03*
X116280000Y-89540000D03*
X113740000Y-87000000D03*
X113740000Y-89540000D03*
%TD*%
D17*
%TO.C,J2*%
X125750000Y-95250000D03*
D18*
X125750000Y-93980000D03*
X127020000Y-95250000D03*
X127020000Y-93980000D03*
X128290000Y-95250000D03*
X128290000Y-93980000D03*
X129560000Y-95250000D03*
X129560000Y-93980000D03*
X130830000Y-95250000D03*
X130830000Y-93980000D03*
X132100000Y-95250000D03*
X132100000Y-93980000D03*
X133370000Y-95250000D03*
X133370000Y-93980000D03*
X134640000Y-95250000D03*
X134640000Y-93980000D03*
%TD*%
D19*
%TO.C,C9*%
X138375000Y-109337500D03*
X136825000Y-109337500D03*
%TD*%
%TO.C,C18*%
X116853000Y-109600000D03*
X115303000Y-109600000D03*
%TD*%
D20*
%TO.C,C2*%
X159725000Y-115750000D03*
X161275000Y-115750000D03*
%TD*%
D19*
%TO.C,C19*%
X139275000Y-119250000D03*
X137725000Y-119250000D03*
%TD*%
D21*
%TO.C,C15*%
X147780000Y-130225000D03*
X147780000Y-131775000D03*
%TD*%
D19*
%TO.C,C16*%
X139275000Y-128778000D03*
X137725000Y-128778000D03*
%TD*%
D22*
%TO.C,C5*%
X158000000Y-109275000D03*
X158000000Y-107725000D03*
%TD*%
%TO.C,C4*%
X144780000Y-128185000D03*
X144780000Y-126635000D03*
%TD*%
D19*
%TO.C,C3*%
X139275000Y-120750000D03*
X137725000Y-120750000D03*
%TD*%
D20*
%TO.C,C13*%
X159725000Y-126000000D03*
X161275000Y-126000000D03*
%TD*%
D22*
%TO.C,C6*%
X143080000Y-128185000D03*
X143080000Y-126635000D03*
%TD*%
%TO.C,C1*%
X156000000Y-109275000D03*
X156000000Y-107725000D03*
%TD*%
%TO.C,C17*%
X138500000Y-124750000D03*
X138500000Y-123200000D03*
%TD*%
D21*
%TO.C,C14*%
X151500000Y-130225000D03*
X151500000Y-131775000D03*
%TD*%
D20*
%TO.C,C12*%
X159725000Y-114250000D03*
X161275000Y-114250000D03*
%TD*%
D22*
%TO.C,C10*%
X148280000Y-109475000D03*
X148280000Y-107925000D03*
%TD*%
%TO.C,C11*%
X153780000Y-109275000D03*
X153780000Y-107725000D03*
%TD*%
M02*
