%TF.GenerationSoftware,KiCad,Pcbnew,(6.0.5)*%
%TF.CreationDate,2023-02-09T13:46:48+02:00*%
%TF.ProjectId,minifp,6d696e69-6670-42e6-9b69-6361645f7063,rev?*%
%TF.SameCoordinates,Original*%
%TF.FileFunction,Legend,Top*%
%TF.FilePolarity,Positive*%
%FSLAX46Y46*%
G04 Gerber Fmt 4.6, Leading zero omitted, Abs format (unit mm)*
G04 Created by KiCad (PCBNEW (6.0.5)) date 2023-02-09 13:46:48*
%MOMM*%
%LPD*%
G01*
G04 APERTURE LIST*
%ADD10C,0.150000*%
%ADD11C,0.200000*%
%ADD12C,0.100000*%
%ADD13C,0.700000*%
%ADD14C,0.120000*%
%ADD15C,0.381000*%
%ADD16C,0.304800*%
%ADD17C,0.254000*%
%ADD18C,4.064000*%
G04 APERTURE END LIST*
D10*
%TO.C,R12*%
X190461904Y-109064285D02*
X190080952Y-109330952D01*
X190461904Y-109521428D02*
X189661904Y-109521428D01*
X189661904Y-109216666D01*
X189700000Y-109140476D01*
X189738095Y-109102380D01*
X189814285Y-109064285D01*
X189928571Y-109064285D01*
X190004761Y-109102380D01*
X190042857Y-109140476D01*
X190080952Y-109216666D01*
X190080952Y-109521428D01*
X190461904Y-108302380D02*
X190461904Y-108759523D01*
X190461904Y-108530952D02*
X189661904Y-108530952D01*
X189776190Y-108607142D01*
X189852380Y-108683333D01*
X189890476Y-108759523D01*
X189738095Y-107997619D02*
X189700000Y-107959523D01*
X189661904Y-107883333D01*
X189661904Y-107692857D01*
X189700000Y-107616666D01*
X189738095Y-107578571D01*
X189814285Y-107540476D01*
X189890476Y-107540476D01*
X190004761Y-107578571D01*
X190461904Y-108035714D01*
X190461904Y-107540476D01*
%TO.C,R9*%
X185661904Y-108683333D02*
X185280952Y-108950000D01*
X185661904Y-109140476D02*
X184861904Y-109140476D01*
X184861904Y-108835714D01*
X184900000Y-108759523D01*
X184938095Y-108721428D01*
X185014285Y-108683333D01*
X185128571Y-108683333D01*
X185204761Y-108721428D01*
X185242857Y-108759523D01*
X185280952Y-108835714D01*
X185280952Y-109140476D01*
X185661904Y-108302380D02*
X185661904Y-108150000D01*
X185623809Y-108073809D01*
X185585714Y-108035714D01*
X185471428Y-107959523D01*
X185319047Y-107921428D01*
X185014285Y-107921428D01*
X184938095Y-107959523D01*
X184900000Y-107997619D01*
X184861904Y-108073809D01*
X184861904Y-108226190D01*
X184900000Y-108302380D01*
X184938095Y-108340476D01*
X185014285Y-108378571D01*
X185204761Y-108378571D01*
X185280952Y-108340476D01*
X185319047Y-108302380D01*
X185357142Y-108226190D01*
X185357142Y-108073809D01*
X185319047Y-107997619D01*
X185280952Y-107959523D01*
X185204761Y-107921428D01*
%TO.C,R100*%
X171931904Y-97645238D02*
X171550952Y-97911904D01*
X171931904Y-98102380D02*
X171131904Y-98102380D01*
X171131904Y-97797619D01*
X171170000Y-97721428D01*
X171208095Y-97683333D01*
X171284285Y-97645238D01*
X171398571Y-97645238D01*
X171474761Y-97683333D01*
X171512857Y-97721428D01*
X171550952Y-97797619D01*
X171550952Y-98102380D01*
X171931904Y-96883333D02*
X171931904Y-97340476D01*
X171931904Y-97111904D02*
X171131904Y-97111904D01*
X171246190Y-97188095D01*
X171322380Y-97264285D01*
X171360476Y-97340476D01*
X171131904Y-96388095D02*
X171131904Y-96311904D01*
X171170000Y-96235714D01*
X171208095Y-96197619D01*
X171284285Y-96159523D01*
X171436666Y-96121428D01*
X171627142Y-96121428D01*
X171779523Y-96159523D01*
X171855714Y-96197619D01*
X171893809Y-96235714D01*
X171931904Y-96311904D01*
X171931904Y-96388095D01*
X171893809Y-96464285D01*
X171855714Y-96502380D01*
X171779523Y-96540476D01*
X171627142Y-96578571D01*
X171436666Y-96578571D01*
X171284285Y-96540476D01*
X171208095Y-96502380D01*
X171170000Y-96464285D01*
X171131904Y-96388095D01*
X171131904Y-95626190D02*
X171131904Y-95550000D01*
X171170000Y-95473809D01*
X171208095Y-95435714D01*
X171284285Y-95397619D01*
X171436666Y-95359523D01*
X171627142Y-95359523D01*
X171779523Y-95397619D01*
X171855714Y-95435714D01*
X171893809Y-95473809D01*
X171931904Y-95550000D01*
X171931904Y-95626190D01*
X171893809Y-95702380D01*
X171855714Y-95740476D01*
X171779523Y-95778571D01*
X171627142Y-95816666D01*
X171436666Y-95816666D01*
X171284285Y-95778571D01*
X171208095Y-95740476D01*
X171170000Y-95702380D01*
X171131904Y-95626190D01*
%TO.C,C603*%
X148035714Y-123045238D02*
X148073809Y-123083333D01*
X148111904Y-123197619D01*
X148111904Y-123273809D01*
X148073809Y-123388095D01*
X147997619Y-123464285D01*
X147921428Y-123502380D01*
X147769047Y-123540476D01*
X147654761Y-123540476D01*
X147502380Y-123502380D01*
X147426190Y-123464285D01*
X147350000Y-123388095D01*
X147311904Y-123273809D01*
X147311904Y-123197619D01*
X147350000Y-123083333D01*
X147388095Y-123045238D01*
X147311904Y-122359523D02*
X147311904Y-122511904D01*
X147350000Y-122588095D01*
X147388095Y-122626190D01*
X147502380Y-122702380D01*
X147654761Y-122740476D01*
X147959523Y-122740476D01*
X148035714Y-122702380D01*
X148073809Y-122664285D01*
X148111904Y-122588095D01*
X148111904Y-122435714D01*
X148073809Y-122359523D01*
X148035714Y-122321428D01*
X147959523Y-122283333D01*
X147769047Y-122283333D01*
X147692857Y-122321428D01*
X147654761Y-122359523D01*
X147616666Y-122435714D01*
X147616666Y-122588095D01*
X147654761Y-122664285D01*
X147692857Y-122702380D01*
X147769047Y-122740476D01*
X147311904Y-121788095D02*
X147311904Y-121711904D01*
X147350000Y-121635714D01*
X147388095Y-121597619D01*
X147464285Y-121559523D01*
X147616666Y-121521428D01*
X147807142Y-121521428D01*
X147959523Y-121559523D01*
X148035714Y-121597619D01*
X148073809Y-121635714D01*
X148111904Y-121711904D01*
X148111904Y-121788095D01*
X148073809Y-121864285D01*
X148035714Y-121902380D01*
X147959523Y-121940476D01*
X147807142Y-121978571D01*
X147616666Y-121978571D01*
X147464285Y-121940476D01*
X147388095Y-121902380D01*
X147350000Y-121864285D01*
X147311904Y-121788095D01*
X147311904Y-121254761D02*
X147311904Y-120759523D01*
X147616666Y-121026190D01*
X147616666Y-120911904D01*
X147654761Y-120835714D01*
X147692857Y-120797619D01*
X147769047Y-120759523D01*
X147959523Y-120759523D01*
X148035714Y-120797619D01*
X148073809Y-120835714D01*
X148111904Y-120911904D01*
X148111904Y-121140476D01*
X148073809Y-121216666D01*
X148035714Y-121254761D01*
%TO.C,C601*%
X128664940Y-123319001D02*
X128611065Y-123319001D01*
X128503316Y-123265126D01*
X128449441Y-123211251D01*
X128395566Y-123103502D01*
X128395566Y-122995752D01*
X128422503Y-122914940D01*
X128503316Y-122780253D01*
X128584128Y-122699441D01*
X128718815Y-122618629D01*
X128799627Y-122591691D01*
X128907377Y-122591691D01*
X129015126Y-122645566D01*
X129069001Y-122699441D01*
X129122876Y-122807190D01*
X129122876Y-122861065D01*
X129661624Y-123292064D02*
X129553874Y-123184314D01*
X129473062Y-123157377D01*
X129419187Y-123157377D01*
X129284500Y-123184314D01*
X129149813Y-123265126D01*
X128934314Y-123480625D01*
X128907377Y-123561438D01*
X128907377Y-123615312D01*
X128934314Y-123696125D01*
X129042064Y-123803874D01*
X129122876Y-123830812D01*
X129176751Y-123830812D01*
X129257563Y-123803874D01*
X129392250Y-123669187D01*
X129419187Y-123588375D01*
X129419187Y-123534500D01*
X129392250Y-123453688D01*
X129284500Y-123345938D01*
X129203688Y-123319001D01*
X129149813Y-123319001D01*
X129069001Y-123345938D01*
X130065685Y-123696125D02*
X130119560Y-123750000D01*
X130146497Y-123830812D01*
X130146497Y-123884687D01*
X130119560Y-123965499D01*
X130038748Y-124100186D01*
X129904061Y-124234873D01*
X129769374Y-124315685D01*
X129688561Y-124342622D01*
X129634687Y-124342622D01*
X129553874Y-124315685D01*
X129500000Y-124261810D01*
X129473062Y-124180998D01*
X129473062Y-124127123D01*
X129500000Y-124046311D01*
X129580812Y-123911624D01*
X129715499Y-123776937D01*
X129850186Y-123696125D01*
X129930998Y-123669187D01*
X129984873Y-123669187D01*
X130065685Y-123696125D01*
X130227309Y-124989120D02*
X129904061Y-124665871D01*
X130065685Y-124827496D02*
X130631370Y-124261810D01*
X130496683Y-124288748D01*
X130388934Y-124288748D01*
X130308122Y-124261810D01*
%TO.C,R6*%
X184461904Y-103258333D02*
X184080952Y-103525000D01*
X184461904Y-103715476D02*
X183661904Y-103715476D01*
X183661904Y-103410714D01*
X183700000Y-103334523D01*
X183738095Y-103296428D01*
X183814285Y-103258333D01*
X183928571Y-103258333D01*
X184004761Y-103296428D01*
X184042857Y-103334523D01*
X184080952Y-103410714D01*
X184080952Y-103715476D01*
X183661904Y-102572619D02*
X183661904Y-102725000D01*
X183700000Y-102801190D01*
X183738095Y-102839285D01*
X183852380Y-102915476D01*
X184004761Y-102953571D01*
X184309523Y-102953571D01*
X184385714Y-102915476D01*
X184423809Y-102877380D01*
X184461904Y-102801190D01*
X184461904Y-102648809D01*
X184423809Y-102572619D01*
X184385714Y-102534523D01*
X184309523Y-102496428D01*
X184119047Y-102496428D01*
X184042857Y-102534523D01*
X184004761Y-102572619D01*
X183966666Y-102648809D01*
X183966666Y-102801190D01*
X184004761Y-102877380D01*
X184042857Y-102915476D01*
X184119047Y-102953571D01*
%TO.C,C334*%
X151154761Y-125185714D02*
X151116666Y-125223809D01*
X151002380Y-125261904D01*
X150926190Y-125261904D01*
X150811904Y-125223809D01*
X150735714Y-125147619D01*
X150697619Y-125071428D01*
X150659523Y-124919047D01*
X150659523Y-124804761D01*
X150697619Y-124652380D01*
X150735714Y-124576190D01*
X150811904Y-124500000D01*
X150926190Y-124461904D01*
X151002380Y-124461904D01*
X151116666Y-124500000D01*
X151154761Y-124538095D01*
X151421428Y-124461904D02*
X151916666Y-124461904D01*
X151650000Y-124766666D01*
X151764285Y-124766666D01*
X151840476Y-124804761D01*
X151878571Y-124842857D01*
X151916666Y-124919047D01*
X151916666Y-125109523D01*
X151878571Y-125185714D01*
X151840476Y-125223809D01*
X151764285Y-125261904D01*
X151535714Y-125261904D01*
X151459523Y-125223809D01*
X151421428Y-125185714D01*
X152183333Y-124461904D02*
X152678571Y-124461904D01*
X152411904Y-124766666D01*
X152526190Y-124766666D01*
X152602380Y-124804761D01*
X152640476Y-124842857D01*
X152678571Y-124919047D01*
X152678571Y-125109523D01*
X152640476Y-125185714D01*
X152602380Y-125223809D01*
X152526190Y-125261904D01*
X152297619Y-125261904D01*
X152221428Y-125223809D01*
X152183333Y-125185714D01*
X153364285Y-124728571D02*
X153364285Y-125261904D01*
X153173809Y-124423809D02*
X152983333Y-124995238D01*
X153478571Y-124995238D01*
%TO.C,R21*%
X192061904Y-114589285D02*
X191680952Y-114855952D01*
X192061904Y-115046428D02*
X191261904Y-115046428D01*
X191261904Y-114741666D01*
X191300000Y-114665476D01*
X191338095Y-114627380D01*
X191414285Y-114589285D01*
X191528571Y-114589285D01*
X191604761Y-114627380D01*
X191642857Y-114665476D01*
X191680952Y-114741666D01*
X191680952Y-115046428D01*
X191338095Y-114284523D02*
X191300000Y-114246428D01*
X191261904Y-114170238D01*
X191261904Y-113979761D01*
X191300000Y-113903571D01*
X191338095Y-113865476D01*
X191414285Y-113827380D01*
X191490476Y-113827380D01*
X191604761Y-113865476D01*
X192061904Y-114322619D01*
X192061904Y-113827380D01*
X192061904Y-113065476D02*
X192061904Y-113522619D01*
X192061904Y-113294047D02*
X191261904Y-113294047D01*
X191376190Y-113370238D01*
X191452380Y-113446428D01*
X191490476Y-113522619D01*
%TO.C,R16*%
X184061904Y-114589285D02*
X183680952Y-114855952D01*
X184061904Y-115046428D02*
X183261904Y-115046428D01*
X183261904Y-114741666D01*
X183300000Y-114665476D01*
X183338095Y-114627380D01*
X183414285Y-114589285D01*
X183528571Y-114589285D01*
X183604761Y-114627380D01*
X183642857Y-114665476D01*
X183680952Y-114741666D01*
X183680952Y-115046428D01*
X184061904Y-113827380D02*
X184061904Y-114284523D01*
X184061904Y-114055952D02*
X183261904Y-114055952D01*
X183376190Y-114132142D01*
X183452380Y-114208333D01*
X183490476Y-114284523D01*
X183261904Y-113141666D02*
X183261904Y-113294047D01*
X183300000Y-113370238D01*
X183338095Y-113408333D01*
X183452380Y-113484523D01*
X183604761Y-113522619D01*
X183909523Y-113522619D01*
X183985714Y-113484523D01*
X184023809Y-113446428D01*
X184061904Y-113370238D01*
X184061904Y-113217857D01*
X184023809Y-113141666D01*
X183985714Y-113103571D01*
X183909523Y-113065476D01*
X183719047Y-113065476D01*
X183642857Y-113103571D01*
X183604761Y-113141666D01*
X183566666Y-113217857D01*
X183566666Y-113370238D01*
X183604761Y-113446428D01*
X183642857Y-113484523D01*
X183719047Y-113522619D01*
%TO.C,R1*%
X176461904Y-103258333D02*
X176080952Y-103525000D01*
X176461904Y-103715476D02*
X175661904Y-103715476D01*
X175661904Y-103410714D01*
X175700000Y-103334523D01*
X175738095Y-103296428D01*
X175814285Y-103258333D01*
X175928571Y-103258333D01*
X176004761Y-103296428D01*
X176042857Y-103334523D01*
X176080952Y-103410714D01*
X176080952Y-103715476D01*
X176461904Y-102496428D02*
X176461904Y-102953571D01*
X176461904Y-102725000D02*
X175661904Y-102725000D01*
X175776190Y-102801190D01*
X175852380Y-102877380D01*
X175890476Y-102953571D01*
%TO.C,C602*%
X137285714Y-120770238D02*
X137323809Y-120808333D01*
X137361904Y-120922619D01*
X137361904Y-120998809D01*
X137323809Y-121113095D01*
X137247619Y-121189285D01*
X137171428Y-121227380D01*
X137019047Y-121265476D01*
X136904761Y-121265476D01*
X136752380Y-121227380D01*
X136676190Y-121189285D01*
X136600000Y-121113095D01*
X136561904Y-120998809D01*
X136561904Y-120922619D01*
X136600000Y-120808333D01*
X136638095Y-120770238D01*
X136561904Y-120084523D02*
X136561904Y-120236904D01*
X136600000Y-120313095D01*
X136638095Y-120351190D01*
X136752380Y-120427380D01*
X136904761Y-120465476D01*
X137209523Y-120465476D01*
X137285714Y-120427380D01*
X137323809Y-120389285D01*
X137361904Y-120313095D01*
X137361904Y-120160714D01*
X137323809Y-120084523D01*
X137285714Y-120046428D01*
X137209523Y-120008333D01*
X137019047Y-120008333D01*
X136942857Y-120046428D01*
X136904761Y-120084523D01*
X136866666Y-120160714D01*
X136866666Y-120313095D01*
X136904761Y-120389285D01*
X136942857Y-120427380D01*
X137019047Y-120465476D01*
X136561904Y-119513095D02*
X136561904Y-119436904D01*
X136600000Y-119360714D01*
X136638095Y-119322619D01*
X136714285Y-119284523D01*
X136866666Y-119246428D01*
X137057142Y-119246428D01*
X137209523Y-119284523D01*
X137285714Y-119322619D01*
X137323809Y-119360714D01*
X137361904Y-119436904D01*
X137361904Y-119513095D01*
X137323809Y-119589285D01*
X137285714Y-119627380D01*
X137209523Y-119665476D01*
X137057142Y-119703571D01*
X136866666Y-119703571D01*
X136714285Y-119665476D01*
X136638095Y-119627380D01*
X136600000Y-119589285D01*
X136561904Y-119513095D01*
X136638095Y-118941666D02*
X136600000Y-118903571D01*
X136561904Y-118827380D01*
X136561904Y-118636904D01*
X136600000Y-118560714D01*
X136638095Y-118522619D01*
X136714285Y-118484523D01*
X136790476Y-118484523D01*
X136904761Y-118522619D01*
X137361904Y-118979761D01*
X137361904Y-118484523D01*
%TO.C,R17*%
X185661904Y-114589285D02*
X185280952Y-114855952D01*
X185661904Y-115046428D02*
X184861904Y-115046428D01*
X184861904Y-114741666D01*
X184900000Y-114665476D01*
X184938095Y-114627380D01*
X185014285Y-114589285D01*
X185128571Y-114589285D01*
X185204761Y-114627380D01*
X185242857Y-114665476D01*
X185280952Y-114741666D01*
X185280952Y-115046428D01*
X185661904Y-113827380D02*
X185661904Y-114284523D01*
X185661904Y-114055952D02*
X184861904Y-114055952D01*
X184976190Y-114132142D01*
X185052380Y-114208333D01*
X185090476Y-114284523D01*
X184861904Y-113560714D02*
X184861904Y-113027380D01*
X185661904Y-113370238D01*
%TO.C,C604*%
X175054761Y-116205714D02*
X175016666Y-116243809D01*
X174902380Y-116281904D01*
X174826190Y-116281904D01*
X174711904Y-116243809D01*
X174635714Y-116167619D01*
X174597619Y-116091428D01*
X174559523Y-115939047D01*
X174559523Y-115824761D01*
X174597619Y-115672380D01*
X174635714Y-115596190D01*
X174711904Y-115520000D01*
X174826190Y-115481904D01*
X174902380Y-115481904D01*
X175016666Y-115520000D01*
X175054761Y-115558095D01*
X175740476Y-115481904D02*
X175588095Y-115481904D01*
X175511904Y-115520000D01*
X175473809Y-115558095D01*
X175397619Y-115672380D01*
X175359523Y-115824761D01*
X175359523Y-116129523D01*
X175397619Y-116205714D01*
X175435714Y-116243809D01*
X175511904Y-116281904D01*
X175664285Y-116281904D01*
X175740476Y-116243809D01*
X175778571Y-116205714D01*
X175816666Y-116129523D01*
X175816666Y-115939047D01*
X175778571Y-115862857D01*
X175740476Y-115824761D01*
X175664285Y-115786666D01*
X175511904Y-115786666D01*
X175435714Y-115824761D01*
X175397619Y-115862857D01*
X175359523Y-115939047D01*
X176311904Y-115481904D02*
X176388095Y-115481904D01*
X176464285Y-115520000D01*
X176502380Y-115558095D01*
X176540476Y-115634285D01*
X176578571Y-115786666D01*
X176578571Y-115977142D01*
X176540476Y-116129523D01*
X176502380Y-116205714D01*
X176464285Y-116243809D01*
X176388095Y-116281904D01*
X176311904Y-116281904D01*
X176235714Y-116243809D01*
X176197619Y-116205714D01*
X176159523Y-116129523D01*
X176121428Y-115977142D01*
X176121428Y-115786666D01*
X176159523Y-115634285D01*
X176197619Y-115558095D01*
X176235714Y-115520000D01*
X176311904Y-115481904D01*
X177264285Y-115748571D02*
X177264285Y-116281904D01*
X177073809Y-115443809D02*
X176883333Y-116015238D01*
X177378571Y-116015238D01*
%TO.C,R5*%
X182861904Y-103258333D02*
X182480952Y-103525000D01*
X182861904Y-103715476D02*
X182061904Y-103715476D01*
X182061904Y-103410714D01*
X182100000Y-103334523D01*
X182138095Y-103296428D01*
X182214285Y-103258333D01*
X182328571Y-103258333D01*
X182404761Y-103296428D01*
X182442857Y-103334523D01*
X182480952Y-103410714D01*
X182480952Y-103715476D01*
X182061904Y-102534523D02*
X182061904Y-102915476D01*
X182442857Y-102953571D01*
X182404761Y-102915476D01*
X182366666Y-102839285D01*
X182366666Y-102648809D01*
X182404761Y-102572619D01*
X182442857Y-102534523D01*
X182519047Y-102496428D01*
X182709523Y-102496428D01*
X182785714Y-102534523D01*
X182823809Y-102572619D01*
X182861904Y-102648809D01*
X182861904Y-102839285D01*
X182823809Y-102915476D01*
X182785714Y-102953571D01*
%TO.C,C609*%
X174085714Y-104670238D02*
X174123809Y-104708333D01*
X174161904Y-104822619D01*
X174161904Y-104898809D01*
X174123809Y-105013095D01*
X174047619Y-105089285D01*
X173971428Y-105127380D01*
X173819047Y-105165476D01*
X173704761Y-105165476D01*
X173552380Y-105127380D01*
X173476190Y-105089285D01*
X173400000Y-105013095D01*
X173361904Y-104898809D01*
X173361904Y-104822619D01*
X173400000Y-104708333D01*
X173438095Y-104670238D01*
X173361904Y-103984523D02*
X173361904Y-104136904D01*
X173400000Y-104213095D01*
X173438095Y-104251190D01*
X173552380Y-104327380D01*
X173704761Y-104365476D01*
X174009523Y-104365476D01*
X174085714Y-104327380D01*
X174123809Y-104289285D01*
X174161904Y-104213095D01*
X174161904Y-104060714D01*
X174123809Y-103984523D01*
X174085714Y-103946428D01*
X174009523Y-103908333D01*
X173819047Y-103908333D01*
X173742857Y-103946428D01*
X173704761Y-103984523D01*
X173666666Y-104060714D01*
X173666666Y-104213095D01*
X173704761Y-104289285D01*
X173742857Y-104327380D01*
X173819047Y-104365476D01*
X173361904Y-103413095D02*
X173361904Y-103336904D01*
X173400000Y-103260714D01*
X173438095Y-103222619D01*
X173514285Y-103184523D01*
X173666666Y-103146428D01*
X173857142Y-103146428D01*
X174009523Y-103184523D01*
X174085714Y-103222619D01*
X174123809Y-103260714D01*
X174161904Y-103336904D01*
X174161904Y-103413095D01*
X174123809Y-103489285D01*
X174085714Y-103527380D01*
X174009523Y-103565476D01*
X173857142Y-103603571D01*
X173666666Y-103603571D01*
X173514285Y-103565476D01*
X173438095Y-103527380D01*
X173400000Y-103489285D01*
X173361904Y-103413095D01*
X174161904Y-102765476D02*
X174161904Y-102613095D01*
X174123809Y-102536904D01*
X174085714Y-102498809D01*
X173971428Y-102422619D01*
X173819047Y-102384523D01*
X173514285Y-102384523D01*
X173438095Y-102422619D01*
X173400000Y-102460714D01*
X173361904Y-102536904D01*
X173361904Y-102689285D01*
X173400000Y-102765476D01*
X173438095Y-102803571D01*
X173514285Y-102841666D01*
X173704761Y-102841666D01*
X173780952Y-102803571D01*
X173819047Y-102765476D01*
X173857142Y-102689285D01*
X173857142Y-102536904D01*
X173819047Y-102460714D01*
X173780952Y-102422619D01*
X173704761Y-102384523D01*
%TO.C,R15*%
X182461904Y-114589285D02*
X182080952Y-114855952D01*
X182461904Y-115046428D02*
X181661904Y-115046428D01*
X181661904Y-114741666D01*
X181700000Y-114665476D01*
X181738095Y-114627380D01*
X181814285Y-114589285D01*
X181928571Y-114589285D01*
X182004761Y-114627380D01*
X182042857Y-114665476D01*
X182080952Y-114741666D01*
X182080952Y-115046428D01*
X182461904Y-113827380D02*
X182461904Y-114284523D01*
X182461904Y-114055952D02*
X181661904Y-114055952D01*
X181776190Y-114132142D01*
X181852380Y-114208333D01*
X181890476Y-114284523D01*
X181661904Y-113103571D02*
X181661904Y-113484523D01*
X182042857Y-113522619D01*
X182004761Y-113484523D01*
X181966666Y-113408333D01*
X181966666Y-113217857D01*
X182004761Y-113141666D01*
X182042857Y-113103571D01*
X182119047Y-113065476D01*
X182309523Y-113065476D01*
X182385714Y-113103571D01*
X182423809Y-113141666D01*
X182461904Y-113217857D01*
X182461904Y-113408333D01*
X182423809Y-113484523D01*
X182385714Y-113522619D01*
%TO.C,C802*%
X175285714Y-100645238D02*
X175323809Y-100683333D01*
X175361904Y-100797619D01*
X175361904Y-100873809D01*
X175323809Y-100988095D01*
X175247619Y-101064285D01*
X175171428Y-101102380D01*
X175019047Y-101140476D01*
X174904761Y-101140476D01*
X174752380Y-101102380D01*
X174676190Y-101064285D01*
X174600000Y-100988095D01*
X174561904Y-100873809D01*
X174561904Y-100797619D01*
X174600000Y-100683333D01*
X174638095Y-100645238D01*
X174904761Y-100188095D02*
X174866666Y-100264285D01*
X174828571Y-100302380D01*
X174752380Y-100340476D01*
X174714285Y-100340476D01*
X174638095Y-100302380D01*
X174600000Y-100264285D01*
X174561904Y-100188095D01*
X174561904Y-100035714D01*
X174600000Y-99959523D01*
X174638095Y-99921428D01*
X174714285Y-99883333D01*
X174752380Y-99883333D01*
X174828571Y-99921428D01*
X174866666Y-99959523D01*
X174904761Y-100035714D01*
X174904761Y-100188095D01*
X174942857Y-100264285D01*
X174980952Y-100302380D01*
X175057142Y-100340476D01*
X175209523Y-100340476D01*
X175285714Y-100302380D01*
X175323809Y-100264285D01*
X175361904Y-100188095D01*
X175361904Y-100035714D01*
X175323809Y-99959523D01*
X175285714Y-99921428D01*
X175209523Y-99883333D01*
X175057142Y-99883333D01*
X174980952Y-99921428D01*
X174942857Y-99959523D01*
X174904761Y-100035714D01*
X174561904Y-99388095D02*
X174561904Y-99311904D01*
X174600000Y-99235714D01*
X174638095Y-99197619D01*
X174714285Y-99159523D01*
X174866666Y-99121428D01*
X175057142Y-99121428D01*
X175209523Y-99159523D01*
X175285714Y-99197619D01*
X175323809Y-99235714D01*
X175361904Y-99311904D01*
X175361904Y-99388095D01*
X175323809Y-99464285D01*
X175285714Y-99502380D01*
X175209523Y-99540476D01*
X175057142Y-99578571D01*
X174866666Y-99578571D01*
X174714285Y-99540476D01*
X174638095Y-99502380D01*
X174600000Y-99464285D01*
X174561904Y-99388095D01*
X174638095Y-98816666D02*
X174600000Y-98778571D01*
X174561904Y-98702380D01*
X174561904Y-98511904D01*
X174600000Y-98435714D01*
X174638095Y-98397619D01*
X174714285Y-98359523D01*
X174790476Y-98359523D01*
X174904761Y-98397619D01*
X175361904Y-98854761D01*
X175361904Y-98359523D01*
%TO.C,C622*%
X182404761Y-96185714D02*
X182366666Y-96223809D01*
X182252380Y-96261904D01*
X182176190Y-96261904D01*
X182061904Y-96223809D01*
X181985714Y-96147619D01*
X181947619Y-96071428D01*
X181909523Y-95919047D01*
X181909523Y-95804761D01*
X181947619Y-95652380D01*
X181985714Y-95576190D01*
X182061904Y-95500000D01*
X182176190Y-95461904D01*
X182252380Y-95461904D01*
X182366666Y-95500000D01*
X182404761Y-95538095D01*
X183090476Y-95461904D02*
X182938095Y-95461904D01*
X182861904Y-95500000D01*
X182823809Y-95538095D01*
X182747619Y-95652380D01*
X182709523Y-95804761D01*
X182709523Y-96109523D01*
X182747619Y-96185714D01*
X182785714Y-96223809D01*
X182861904Y-96261904D01*
X183014285Y-96261904D01*
X183090476Y-96223809D01*
X183128571Y-96185714D01*
X183166666Y-96109523D01*
X183166666Y-95919047D01*
X183128571Y-95842857D01*
X183090476Y-95804761D01*
X183014285Y-95766666D01*
X182861904Y-95766666D01*
X182785714Y-95804761D01*
X182747619Y-95842857D01*
X182709523Y-95919047D01*
X183471428Y-95538095D02*
X183509523Y-95500000D01*
X183585714Y-95461904D01*
X183776190Y-95461904D01*
X183852380Y-95500000D01*
X183890476Y-95538095D01*
X183928571Y-95614285D01*
X183928571Y-95690476D01*
X183890476Y-95804761D01*
X183433333Y-96261904D01*
X183928571Y-96261904D01*
X184233333Y-95538095D02*
X184271428Y-95500000D01*
X184347619Y-95461904D01*
X184538095Y-95461904D01*
X184614285Y-95500000D01*
X184652380Y-95538095D01*
X184690476Y-95614285D01*
X184690476Y-95690476D01*
X184652380Y-95804761D01*
X184195238Y-96261904D01*
X184690476Y-96261904D01*
%TO.C,C606*%
X139085714Y-120770238D02*
X139123809Y-120808333D01*
X139161904Y-120922619D01*
X139161904Y-120998809D01*
X139123809Y-121113095D01*
X139047619Y-121189285D01*
X138971428Y-121227380D01*
X138819047Y-121265476D01*
X138704761Y-121265476D01*
X138552380Y-121227380D01*
X138476190Y-121189285D01*
X138400000Y-121113095D01*
X138361904Y-120998809D01*
X138361904Y-120922619D01*
X138400000Y-120808333D01*
X138438095Y-120770238D01*
X138361904Y-120084523D02*
X138361904Y-120236904D01*
X138400000Y-120313095D01*
X138438095Y-120351190D01*
X138552380Y-120427380D01*
X138704761Y-120465476D01*
X139009523Y-120465476D01*
X139085714Y-120427380D01*
X139123809Y-120389285D01*
X139161904Y-120313095D01*
X139161904Y-120160714D01*
X139123809Y-120084523D01*
X139085714Y-120046428D01*
X139009523Y-120008333D01*
X138819047Y-120008333D01*
X138742857Y-120046428D01*
X138704761Y-120084523D01*
X138666666Y-120160714D01*
X138666666Y-120313095D01*
X138704761Y-120389285D01*
X138742857Y-120427380D01*
X138819047Y-120465476D01*
X138361904Y-119513095D02*
X138361904Y-119436904D01*
X138400000Y-119360714D01*
X138438095Y-119322619D01*
X138514285Y-119284523D01*
X138666666Y-119246428D01*
X138857142Y-119246428D01*
X139009523Y-119284523D01*
X139085714Y-119322619D01*
X139123809Y-119360714D01*
X139161904Y-119436904D01*
X139161904Y-119513095D01*
X139123809Y-119589285D01*
X139085714Y-119627380D01*
X139009523Y-119665476D01*
X138857142Y-119703571D01*
X138666666Y-119703571D01*
X138514285Y-119665476D01*
X138438095Y-119627380D01*
X138400000Y-119589285D01*
X138361904Y-119513095D01*
X138361904Y-118560714D02*
X138361904Y-118713095D01*
X138400000Y-118789285D01*
X138438095Y-118827380D01*
X138552380Y-118903571D01*
X138704761Y-118941666D01*
X139009523Y-118941666D01*
X139085714Y-118903571D01*
X139123809Y-118865476D01*
X139161904Y-118789285D01*
X139161904Y-118636904D01*
X139123809Y-118560714D01*
X139085714Y-118522619D01*
X139009523Y-118484523D01*
X138819047Y-118484523D01*
X138742857Y-118522619D01*
X138704761Y-118560714D01*
X138666666Y-118636904D01*
X138666666Y-118789285D01*
X138704761Y-118865476D01*
X138742857Y-118903571D01*
X138819047Y-118941666D01*
%TO.C,R14*%
X190385714Y-102661904D02*
X190119047Y-102280952D01*
X189928571Y-102661904D02*
X189928571Y-101861904D01*
X190233333Y-101861904D01*
X190309523Y-101900000D01*
X190347619Y-101938095D01*
X190385714Y-102014285D01*
X190385714Y-102128571D01*
X190347619Y-102204761D01*
X190309523Y-102242857D01*
X190233333Y-102280952D01*
X189928571Y-102280952D01*
X191147619Y-102661904D02*
X190690476Y-102661904D01*
X190919047Y-102661904D02*
X190919047Y-101861904D01*
X190842857Y-101976190D01*
X190766666Y-102052380D01*
X190690476Y-102090476D01*
X191833333Y-102128571D02*
X191833333Y-102661904D01*
X191642857Y-101823809D02*
X191452380Y-102395238D01*
X191947619Y-102395238D01*
%TO.C,C608*%
X171104761Y-87685714D02*
X171066666Y-87723809D01*
X170952380Y-87761904D01*
X170876190Y-87761904D01*
X170761904Y-87723809D01*
X170685714Y-87647619D01*
X170647619Y-87571428D01*
X170609523Y-87419047D01*
X170609523Y-87304761D01*
X170647619Y-87152380D01*
X170685714Y-87076190D01*
X170761904Y-87000000D01*
X170876190Y-86961904D01*
X170952380Y-86961904D01*
X171066666Y-87000000D01*
X171104761Y-87038095D01*
X171790476Y-86961904D02*
X171638095Y-86961904D01*
X171561904Y-87000000D01*
X171523809Y-87038095D01*
X171447619Y-87152380D01*
X171409523Y-87304761D01*
X171409523Y-87609523D01*
X171447619Y-87685714D01*
X171485714Y-87723809D01*
X171561904Y-87761904D01*
X171714285Y-87761904D01*
X171790476Y-87723809D01*
X171828571Y-87685714D01*
X171866666Y-87609523D01*
X171866666Y-87419047D01*
X171828571Y-87342857D01*
X171790476Y-87304761D01*
X171714285Y-87266666D01*
X171561904Y-87266666D01*
X171485714Y-87304761D01*
X171447619Y-87342857D01*
X171409523Y-87419047D01*
X172361904Y-86961904D02*
X172438095Y-86961904D01*
X172514285Y-87000000D01*
X172552380Y-87038095D01*
X172590476Y-87114285D01*
X172628571Y-87266666D01*
X172628571Y-87457142D01*
X172590476Y-87609523D01*
X172552380Y-87685714D01*
X172514285Y-87723809D01*
X172438095Y-87761904D01*
X172361904Y-87761904D01*
X172285714Y-87723809D01*
X172247619Y-87685714D01*
X172209523Y-87609523D01*
X172171428Y-87457142D01*
X172171428Y-87266666D01*
X172209523Y-87114285D01*
X172247619Y-87038095D01*
X172285714Y-87000000D01*
X172361904Y-86961904D01*
X173085714Y-87304761D02*
X173009523Y-87266666D01*
X172971428Y-87228571D01*
X172933333Y-87152380D01*
X172933333Y-87114285D01*
X172971428Y-87038095D01*
X173009523Y-87000000D01*
X173085714Y-86961904D01*
X173238095Y-86961904D01*
X173314285Y-87000000D01*
X173352380Y-87038095D01*
X173390476Y-87114285D01*
X173390476Y-87152380D01*
X173352380Y-87228571D01*
X173314285Y-87266666D01*
X173238095Y-87304761D01*
X173085714Y-87304761D01*
X173009523Y-87342857D01*
X172971428Y-87380952D01*
X172933333Y-87457142D01*
X172933333Y-87609523D01*
X172971428Y-87685714D01*
X173009523Y-87723809D01*
X173085714Y-87761904D01*
X173238095Y-87761904D01*
X173314285Y-87723809D01*
X173352380Y-87685714D01*
X173390476Y-87609523D01*
X173390476Y-87457142D01*
X173352380Y-87380952D01*
X173314285Y-87342857D01*
X173238095Y-87304761D01*
%TO.C,R8*%
X184061904Y-108683333D02*
X183680952Y-108950000D01*
X184061904Y-109140476D02*
X183261904Y-109140476D01*
X183261904Y-108835714D01*
X183300000Y-108759523D01*
X183338095Y-108721428D01*
X183414285Y-108683333D01*
X183528571Y-108683333D01*
X183604761Y-108721428D01*
X183642857Y-108759523D01*
X183680952Y-108835714D01*
X183680952Y-109140476D01*
X183604761Y-108226190D02*
X183566666Y-108302380D01*
X183528571Y-108340476D01*
X183452380Y-108378571D01*
X183414285Y-108378571D01*
X183338095Y-108340476D01*
X183300000Y-108302380D01*
X183261904Y-108226190D01*
X183261904Y-108073809D01*
X183300000Y-107997619D01*
X183338095Y-107959523D01*
X183414285Y-107921428D01*
X183452380Y-107921428D01*
X183528571Y-107959523D01*
X183566666Y-107997619D01*
X183604761Y-108073809D01*
X183604761Y-108226190D01*
X183642857Y-108302380D01*
X183680952Y-108340476D01*
X183757142Y-108378571D01*
X183909523Y-108378571D01*
X183985714Y-108340476D01*
X184023809Y-108302380D01*
X184061904Y-108226190D01*
X184061904Y-108073809D01*
X184023809Y-107997619D01*
X183985714Y-107959523D01*
X183909523Y-107921428D01*
X183757142Y-107921428D01*
X183680952Y-107959523D01*
X183642857Y-107997619D01*
X183604761Y-108073809D01*
%TO.C,R7*%
X186061904Y-103258333D02*
X185680952Y-103525000D01*
X186061904Y-103715476D02*
X185261904Y-103715476D01*
X185261904Y-103410714D01*
X185300000Y-103334523D01*
X185338095Y-103296428D01*
X185414285Y-103258333D01*
X185528571Y-103258333D01*
X185604761Y-103296428D01*
X185642857Y-103334523D01*
X185680952Y-103410714D01*
X185680952Y-103715476D01*
X185261904Y-102991666D02*
X185261904Y-102458333D01*
X186061904Y-102801190D01*
%TO.C,R19*%
X188861904Y-114589285D02*
X188480952Y-114855952D01*
X188861904Y-115046428D02*
X188061904Y-115046428D01*
X188061904Y-114741666D01*
X188100000Y-114665476D01*
X188138095Y-114627380D01*
X188214285Y-114589285D01*
X188328571Y-114589285D01*
X188404761Y-114627380D01*
X188442857Y-114665476D01*
X188480952Y-114741666D01*
X188480952Y-115046428D01*
X188861904Y-113827380D02*
X188861904Y-114284523D01*
X188861904Y-114055952D02*
X188061904Y-114055952D01*
X188176190Y-114132142D01*
X188252380Y-114208333D01*
X188290476Y-114284523D01*
X188861904Y-113446428D02*
X188861904Y-113294047D01*
X188823809Y-113217857D01*
X188785714Y-113179761D01*
X188671428Y-113103571D01*
X188519047Y-113065476D01*
X188214285Y-113065476D01*
X188138095Y-113103571D01*
X188100000Y-113141666D01*
X188061904Y-113217857D01*
X188061904Y-113370238D01*
X188100000Y-113446428D01*
X188138095Y-113484523D01*
X188214285Y-113522619D01*
X188404761Y-113522619D01*
X188480952Y-113484523D01*
X188519047Y-113446428D01*
X188557142Y-113370238D01*
X188557142Y-113217857D01*
X188519047Y-113141666D01*
X188480952Y-113103571D01*
X188404761Y-113065476D01*
%TO.C,R13*%
X192061904Y-109064285D02*
X191680952Y-109330952D01*
X192061904Y-109521428D02*
X191261904Y-109521428D01*
X191261904Y-109216666D01*
X191300000Y-109140476D01*
X191338095Y-109102380D01*
X191414285Y-109064285D01*
X191528571Y-109064285D01*
X191604761Y-109102380D01*
X191642857Y-109140476D01*
X191680952Y-109216666D01*
X191680952Y-109521428D01*
X192061904Y-108302380D02*
X192061904Y-108759523D01*
X192061904Y-108530952D02*
X191261904Y-108530952D01*
X191376190Y-108607142D01*
X191452380Y-108683333D01*
X191490476Y-108759523D01*
X191261904Y-108035714D02*
X191261904Y-107540476D01*
X191566666Y-107807142D01*
X191566666Y-107692857D01*
X191604761Y-107616666D01*
X191642857Y-107578571D01*
X191719047Y-107540476D01*
X191909523Y-107540476D01*
X191985714Y-107578571D01*
X192023809Y-107616666D01*
X192061904Y-107692857D01*
X192061904Y-107921428D01*
X192023809Y-107997619D01*
X191985714Y-108035714D01*
%TO.C,R4*%
X181261904Y-103258333D02*
X180880952Y-103525000D01*
X181261904Y-103715476D02*
X180461904Y-103715476D01*
X180461904Y-103410714D01*
X180500000Y-103334523D01*
X180538095Y-103296428D01*
X180614285Y-103258333D01*
X180728571Y-103258333D01*
X180804761Y-103296428D01*
X180842857Y-103334523D01*
X180880952Y-103410714D01*
X180880952Y-103715476D01*
X180728571Y-102572619D02*
X181261904Y-102572619D01*
X180423809Y-102763095D02*
X180995238Y-102953571D01*
X180995238Y-102458333D01*
%TO.C,C605*%
X128554761Y-102427725D02*
X128516666Y-102465820D01*
X128402380Y-102503915D01*
X128326190Y-102503915D01*
X128211904Y-102465820D01*
X128135714Y-102389630D01*
X128097619Y-102313439D01*
X128059523Y-102161058D01*
X128059523Y-102046772D01*
X128097619Y-101894391D01*
X128135714Y-101818201D01*
X128211904Y-101742011D01*
X128326190Y-101703915D01*
X128402380Y-101703915D01*
X128516666Y-101742011D01*
X128554761Y-101780106D01*
X129240476Y-101703915D02*
X129088095Y-101703915D01*
X129011904Y-101742011D01*
X128973809Y-101780106D01*
X128897619Y-101894391D01*
X128859523Y-102046772D01*
X128859523Y-102351534D01*
X128897619Y-102427725D01*
X128935714Y-102465820D01*
X129011904Y-102503915D01*
X129164285Y-102503915D01*
X129240476Y-102465820D01*
X129278571Y-102427725D01*
X129316666Y-102351534D01*
X129316666Y-102161058D01*
X129278571Y-102084868D01*
X129240476Y-102046772D01*
X129164285Y-102008677D01*
X129011904Y-102008677D01*
X128935714Y-102046772D01*
X128897619Y-102084868D01*
X128859523Y-102161058D01*
X129811904Y-101703915D02*
X129888095Y-101703915D01*
X129964285Y-101742011D01*
X130002380Y-101780106D01*
X130040476Y-101856296D01*
X130078571Y-102008677D01*
X130078571Y-102199153D01*
X130040476Y-102351534D01*
X130002380Y-102427725D01*
X129964285Y-102465820D01*
X129888095Y-102503915D01*
X129811904Y-102503915D01*
X129735714Y-102465820D01*
X129697619Y-102427725D01*
X129659523Y-102351534D01*
X129621428Y-102199153D01*
X129621428Y-102008677D01*
X129659523Y-101856296D01*
X129697619Y-101780106D01*
X129735714Y-101742011D01*
X129811904Y-101703915D01*
X130802380Y-101703915D02*
X130421428Y-101703915D01*
X130383333Y-102084868D01*
X130421428Y-102046772D01*
X130497619Y-102008677D01*
X130688095Y-102008677D01*
X130764285Y-102046772D01*
X130802380Y-102084868D01*
X130840476Y-102161058D01*
X130840476Y-102351534D01*
X130802380Y-102427725D01*
X130764285Y-102465820D01*
X130688095Y-102503915D01*
X130497619Y-102503915D01*
X130421428Y-102465820D01*
X130383333Y-102427725D01*
%TO.C,R20*%
X190461904Y-114589285D02*
X190080952Y-114855952D01*
X190461904Y-115046428D02*
X189661904Y-115046428D01*
X189661904Y-114741666D01*
X189700000Y-114665476D01*
X189738095Y-114627380D01*
X189814285Y-114589285D01*
X189928571Y-114589285D01*
X190004761Y-114627380D01*
X190042857Y-114665476D01*
X190080952Y-114741666D01*
X190080952Y-115046428D01*
X189738095Y-114284523D02*
X189700000Y-114246428D01*
X189661904Y-114170238D01*
X189661904Y-113979761D01*
X189700000Y-113903571D01*
X189738095Y-113865476D01*
X189814285Y-113827380D01*
X189890476Y-113827380D01*
X190004761Y-113865476D01*
X190461904Y-114322619D01*
X190461904Y-113827380D01*
X189661904Y-113332142D02*
X189661904Y-113255952D01*
X189700000Y-113179761D01*
X189738095Y-113141666D01*
X189814285Y-113103571D01*
X189966666Y-113065476D01*
X190157142Y-113065476D01*
X190309523Y-113103571D01*
X190385714Y-113141666D01*
X190423809Y-113179761D01*
X190461904Y-113255952D01*
X190461904Y-113332142D01*
X190423809Y-113408333D01*
X190385714Y-113446428D01*
X190309523Y-113484523D01*
X190157142Y-113522619D01*
X189966666Y-113522619D01*
X189814285Y-113484523D01*
X189738095Y-113446428D01*
X189700000Y-113408333D01*
X189661904Y-113332142D01*
%TO.C,R2*%
X178061904Y-103258333D02*
X177680952Y-103525000D01*
X178061904Y-103715476D02*
X177261904Y-103715476D01*
X177261904Y-103410714D01*
X177300000Y-103334523D01*
X177338095Y-103296428D01*
X177414285Y-103258333D01*
X177528571Y-103258333D01*
X177604761Y-103296428D01*
X177642857Y-103334523D01*
X177680952Y-103410714D01*
X177680952Y-103715476D01*
X177338095Y-102953571D02*
X177300000Y-102915476D01*
X177261904Y-102839285D01*
X177261904Y-102648809D01*
X177300000Y-102572619D01*
X177338095Y-102534523D01*
X177414285Y-102496428D01*
X177490476Y-102496428D01*
X177604761Y-102534523D01*
X178061904Y-102991666D01*
X178061904Y-102496428D01*
%TO.C,C607*%
X181354761Y-92205714D02*
X181316666Y-92243809D01*
X181202380Y-92281904D01*
X181126190Y-92281904D01*
X181011904Y-92243809D01*
X180935714Y-92167619D01*
X180897619Y-92091428D01*
X180859523Y-91939047D01*
X180859523Y-91824761D01*
X180897619Y-91672380D01*
X180935714Y-91596190D01*
X181011904Y-91520000D01*
X181126190Y-91481904D01*
X181202380Y-91481904D01*
X181316666Y-91520000D01*
X181354761Y-91558095D01*
X182040476Y-91481904D02*
X181888095Y-91481904D01*
X181811904Y-91520000D01*
X181773809Y-91558095D01*
X181697619Y-91672380D01*
X181659523Y-91824761D01*
X181659523Y-92129523D01*
X181697619Y-92205714D01*
X181735714Y-92243809D01*
X181811904Y-92281904D01*
X181964285Y-92281904D01*
X182040476Y-92243809D01*
X182078571Y-92205714D01*
X182116666Y-92129523D01*
X182116666Y-91939047D01*
X182078571Y-91862857D01*
X182040476Y-91824761D01*
X181964285Y-91786666D01*
X181811904Y-91786666D01*
X181735714Y-91824761D01*
X181697619Y-91862857D01*
X181659523Y-91939047D01*
X182611904Y-91481904D02*
X182688095Y-91481904D01*
X182764285Y-91520000D01*
X182802380Y-91558095D01*
X182840476Y-91634285D01*
X182878571Y-91786666D01*
X182878571Y-91977142D01*
X182840476Y-92129523D01*
X182802380Y-92205714D01*
X182764285Y-92243809D01*
X182688095Y-92281904D01*
X182611904Y-92281904D01*
X182535714Y-92243809D01*
X182497619Y-92205714D01*
X182459523Y-92129523D01*
X182421428Y-91977142D01*
X182421428Y-91786666D01*
X182459523Y-91634285D01*
X182497619Y-91558095D01*
X182535714Y-91520000D01*
X182611904Y-91481904D01*
X183145238Y-91481904D02*
X183678571Y-91481904D01*
X183335714Y-92281904D01*
%TO.C,C801*%
X179704761Y-98535714D02*
X179666666Y-98573809D01*
X179552380Y-98611904D01*
X179476190Y-98611904D01*
X179361904Y-98573809D01*
X179285714Y-98497619D01*
X179247619Y-98421428D01*
X179209523Y-98269047D01*
X179209523Y-98154761D01*
X179247619Y-98002380D01*
X179285714Y-97926190D01*
X179361904Y-97850000D01*
X179476190Y-97811904D01*
X179552380Y-97811904D01*
X179666666Y-97850000D01*
X179704761Y-97888095D01*
X180161904Y-98154761D02*
X180085714Y-98116666D01*
X180047619Y-98078571D01*
X180009523Y-98002380D01*
X180009523Y-97964285D01*
X180047619Y-97888095D01*
X180085714Y-97850000D01*
X180161904Y-97811904D01*
X180314285Y-97811904D01*
X180390476Y-97850000D01*
X180428571Y-97888095D01*
X180466666Y-97964285D01*
X180466666Y-98002380D01*
X180428571Y-98078571D01*
X180390476Y-98116666D01*
X180314285Y-98154761D01*
X180161904Y-98154761D01*
X180085714Y-98192857D01*
X180047619Y-98230952D01*
X180009523Y-98307142D01*
X180009523Y-98459523D01*
X180047619Y-98535714D01*
X180085714Y-98573809D01*
X180161904Y-98611904D01*
X180314285Y-98611904D01*
X180390476Y-98573809D01*
X180428571Y-98535714D01*
X180466666Y-98459523D01*
X180466666Y-98307142D01*
X180428571Y-98230952D01*
X180390476Y-98192857D01*
X180314285Y-98154761D01*
X180961904Y-97811904D02*
X181038095Y-97811904D01*
X181114285Y-97850000D01*
X181152380Y-97888095D01*
X181190476Y-97964285D01*
X181228571Y-98116666D01*
X181228571Y-98307142D01*
X181190476Y-98459523D01*
X181152380Y-98535714D01*
X181114285Y-98573809D01*
X181038095Y-98611904D01*
X180961904Y-98611904D01*
X180885714Y-98573809D01*
X180847619Y-98535714D01*
X180809523Y-98459523D01*
X180771428Y-98307142D01*
X180771428Y-98116666D01*
X180809523Y-97964285D01*
X180847619Y-97888095D01*
X180885714Y-97850000D01*
X180961904Y-97811904D01*
X181990476Y-98611904D02*
X181533333Y-98611904D01*
X181761904Y-98611904D02*
X181761904Y-97811904D01*
X181685714Y-97926190D01*
X181609523Y-98002380D01*
X181533333Y-98040476D01*
%TO.C,C333*%
X158789940Y-96569001D02*
X158736065Y-96569001D01*
X158628316Y-96515126D01*
X158574441Y-96461251D01*
X158520566Y-96353502D01*
X158520566Y-96245752D01*
X158547503Y-96164940D01*
X158628316Y-96030253D01*
X158709128Y-95949441D01*
X158843815Y-95868629D01*
X158924627Y-95841691D01*
X159032377Y-95841691D01*
X159140126Y-95895566D01*
X159194001Y-95949441D01*
X159247876Y-96057190D01*
X159247876Y-96111065D01*
X159490312Y-96245752D02*
X159840499Y-96595938D01*
X159436438Y-96622876D01*
X159517250Y-96703688D01*
X159544187Y-96784500D01*
X159544187Y-96838375D01*
X159517250Y-96919187D01*
X159382563Y-97053874D01*
X159301751Y-97080812D01*
X159247876Y-97080812D01*
X159167064Y-97053874D01*
X159005439Y-96892250D01*
X158978502Y-96811438D01*
X158978502Y-96757563D01*
X160029061Y-96784500D02*
X160379247Y-97134687D01*
X159975186Y-97161624D01*
X160055998Y-97242436D01*
X160082935Y-97323248D01*
X160082935Y-97377123D01*
X160055998Y-97457935D01*
X159921311Y-97592622D01*
X159840499Y-97619560D01*
X159786624Y-97619560D01*
X159705812Y-97592622D01*
X159544187Y-97430998D01*
X159517250Y-97350186D01*
X159517250Y-97296311D01*
X160567809Y-97323248D02*
X160917995Y-97673435D01*
X160513934Y-97700372D01*
X160594746Y-97781184D01*
X160621683Y-97861996D01*
X160621683Y-97915871D01*
X160594746Y-97996683D01*
X160460059Y-98131370D01*
X160379247Y-98158308D01*
X160325372Y-98158308D01*
X160244560Y-98131370D01*
X160082935Y-97969746D01*
X160055998Y-97888934D01*
X160055998Y-97835059D01*
%TO.C,R3*%
X179661904Y-103258333D02*
X179280952Y-103525000D01*
X179661904Y-103715476D02*
X178861904Y-103715476D01*
X178861904Y-103410714D01*
X178900000Y-103334523D01*
X178938095Y-103296428D01*
X179014285Y-103258333D01*
X179128571Y-103258333D01*
X179204761Y-103296428D01*
X179242857Y-103334523D01*
X179280952Y-103410714D01*
X179280952Y-103715476D01*
X178861904Y-102991666D02*
X178861904Y-102496428D01*
X179166666Y-102763095D01*
X179166666Y-102648809D01*
X179204761Y-102572619D01*
X179242857Y-102534523D01*
X179319047Y-102496428D01*
X179509523Y-102496428D01*
X179585714Y-102534523D01*
X179623809Y-102572619D01*
X179661904Y-102648809D01*
X179661904Y-102877380D01*
X179623809Y-102953571D01*
X179585714Y-102991666D01*
%TO.C,R18*%
X187261904Y-114589285D02*
X186880952Y-114855952D01*
X187261904Y-115046428D02*
X186461904Y-115046428D01*
X186461904Y-114741666D01*
X186500000Y-114665476D01*
X186538095Y-114627380D01*
X186614285Y-114589285D01*
X186728571Y-114589285D01*
X186804761Y-114627380D01*
X186842857Y-114665476D01*
X186880952Y-114741666D01*
X186880952Y-115046428D01*
X187261904Y-113827380D02*
X187261904Y-114284523D01*
X187261904Y-114055952D02*
X186461904Y-114055952D01*
X186576190Y-114132142D01*
X186652380Y-114208333D01*
X186690476Y-114284523D01*
X186804761Y-113370238D02*
X186766666Y-113446428D01*
X186728571Y-113484523D01*
X186652380Y-113522619D01*
X186614285Y-113522619D01*
X186538095Y-113484523D01*
X186500000Y-113446428D01*
X186461904Y-113370238D01*
X186461904Y-113217857D01*
X186500000Y-113141666D01*
X186538095Y-113103571D01*
X186614285Y-113065476D01*
X186652380Y-113065476D01*
X186728571Y-113103571D01*
X186766666Y-113141666D01*
X186804761Y-113217857D01*
X186804761Y-113370238D01*
X186842857Y-113446428D01*
X186880952Y-113484523D01*
X186957142Y-113522619D01*
X187109523Y-113522619D01*
X187185714Y-113484523D01*
X187223809Y-113446428D01*
X187261904Y-113370238D01*
X187261904Y-113217857D01*
X187223809Y-113141666D01*
X187185714Y-113103571D01*
X187109523Y-113065476D01*
X186957142Y-113065476D01*
X186880952Y-113103571D01*
X186842857Y-113141666D01*
X186804761Y-113217857D01*
%TO.C,R11*%
X188861904Y-109064285D02*
X188480952Y-109330952D01*
X188861904Y-109521428D02*
X188061904Y-109521428D01*
X188061904Y-109216666D01*
X188100000Y-109140476D01*
X188138095Y-109102380D01*
X188214285Y-109064285D01*
X188328571Y-109064285D01*
X188404761Y-109102380D01*
X188442857Y-109140476D01*
X188480952Y-109216666D01*
X188480952Y-109521428D01*
X188861904Y-108302380D02*
X188861904Y-108759523D01*
X188861904Y-108530952D02*
X188061904Y-108530952D01*
X188176190Y-108607142D01*
X188252380Y-108683333D01*
X188290476Y-108759523D01*
X188861904Y-107540476D02*
X188861904Y-107997619D01*
X188861904Y-107769047D02*
X188061904Y-107769047D01*
X188176190Y-107845238D01*
X188252380Y-107921428D01*
X188290476Y-107997619D01*
%TO.C,R10*%
X187261904Y-109064285D02*
X186880952Y-109330952D01*
X187261904Y-109521428D02*
X186461904Y-109521428D01*
X186461904Y-109216666D01*
X186500000Y-109140476D01*
X186538095Y-109102380D01*
X186614285Y-109064285D01*
X186728571Y-109064285D01*
X186804761Y-109102380D01*
X186842857Y-109140476D01*
X186880952Y-109216666D01*
X186880952Y-109521428D01*
X187261904Y-108302380D02*
X187261904Y-108759523D01*
X187261904Y-108530952D02*
X186461904Y-108530952D01*
X186576190Y-108607142D01*
X186652380Y-108683333D01*
X186690476Y-108759523D01*
X186461904Y-107807142D02*
X186461904Y-107730952D01*
X186500000Y-107654761D01*
X186538095Y-107616666D01*
X186614285Y-107578571D01*
X186766666Y-107540476D01*
X186957142Y-107540476D01*
X187109523Y-107578571D01*
X187185714Y-107616666D01*
X187223809Y-107654761D01*
X187261904Y-107730952D01*
X187261904Y-107807142D01*
X187223809Y-107883333D01*
X187185714Y-107921428D01*
X187109523Y-107959523D01*
X186957142Y-107997619D01*
X186766666Y-107997619D01*
X186614285Y-107959523D01*
X186538095Y-107921428D01*
X186500000Y-107883333D01*
X186461904Y-107807142D01*
D11*
%TO.C,Y1*%
X130000000Y-106500000D02*
X130000000Y-106500000D01*
X130100000Y-106500000D02*
X130100000Y-106500000D01*
X130000000Y-106500000D02*
X130000000Y-106500000D01*
X130000000Y-106500000D02*
G75*
G03*
X130100000Y-106500000I50000J0D01*
G01*
X130100000Y-106500000D02*
G75*
G03*
X130000000Y-106500000I-50000J0D01*
G01*
X130000000Y-106500000D02*
G75*
G03*
X130100000Y-106500000I50000J0D01*
G01*
D12*
%TO.C,J401*%
X212970000Y-121413000D02*
X212970000Y-90602000D01*
X212970000Y-90602000D02*
X196550000Y-90602000D01*
X196550000Y-90602000D02*
X196550000Y-121413000D01*
X196550000Y-121413000D02*
X212970000Y-121413000D01*
D13*
X195000000Y-102000000D02*
X195000000Y-102000000D01*
X195000000Y-101900000D02*
X195000000Y-101900000D01*
X195000000Y-102000000D02*
G75*
G03*
X195000000Y-101900000I0J50000D01*
G01*
X195000000Y-101900000D02*
G75*
G03*
X195000000Y-102000000I0J-50000D01*
G01*
D11*
%TO.C,J123*%
X202700000Y-137200000D02*
X202700000Y-125200000D01*
X202700000Y-125200000D02*
X203500000Y-125200000D01*
D12*
X217000000Y-131300000D02*
X217000000Y-131300000D01*
D11*
X211500000Y-137200000D02*
X213000000Y-137200000D01*
X208500000Y-137200000D02*
X206500000Y-137200000D01*
X213000000Y-137200000D02*
X213000000Y-125200000D01*
X216500000Y-128200000D02*
X216500000Y-134200000D01*
X203500000Y-137200000D02*
X202700000Y-137200000D01*
X216500000Y-134200000D02*
X213000000Y-134200000D01*
X208500000Y-125200000D02*
X206500000Y-125200000D01*
X213000000Y-128200000D02*
X216500000Y-128200000D01*
X213000000Y-125200000D02*
X211500000Y-125200000D01*
X211500000Y-137200000D02*
X211500000Y-137200000D01*
D12*
X217000000Y-131200000D02*
X217000000Y-131200000D01*
X217000000Y-131300000D02*
G75*
G03*
X217000000Y-131200000I0J50000D01*
G01*
X217000000Y-131200000D02*
G75*
G03*
X217000000Y-131300000I0J-50000D01*
G01*
D11*
%TO.C,IC102*%
X141950000Y-106000000D02*
X141950000Y-109200000D01*
X141950000Y-109200000D02*
X137050000Y-109200000D01*
X137050000Y-109200000D02*
X137050000Y-106000000D01*
X137050000Y-106000000D02*
X141950000Y-106000000D01*
X142080000Y-104150000D02*
X142080000Y-105650000D01*
D14*
%TO.C,R12*%
X190622500Y-105662742D02*
X190622500Y-106137258D01*
X189577500Y-105662742D02*
X189577500Y-106137258D01*
%TO.C,U1*%
X171110000Y-100590000D02*
X171110000Y-101540000D01*
X151840000Y-120810000D02*
X150890000Y-120810000D01*
X151840000Y-100590000D02*
X150890000Y-100590000D01*
X171110000Y-120810000D02*
X171110000Y-119860000D01*
X170160000Y-100590000D02*
X171110000Y-100590000D01*
X150890000Y-120810000D02*
X150890000Y-119860000D01*
X171110000Y-119860000D02*
X172400000Y-119860000D01*
X170160000Y-120810000D02*
X171110000Y-120810000D01*
X150890000Y-100590000D02*
X150890000Y-101540000D01*
%TO.C,R9*%
X185822500Y-105662742D02*
X185822500Y-106137258D01*
X184777500Y-105662742D02*
X184777500Y-106137258D01*
%TO.C,R100*%
X172477500Y-96987258D02*
X172477500Y-96512742D01*
X173522500Y-96987258D02*
X173522500Y-96512742D01*
%TO.C,J301*%
X197230000Y-133525000D02*
X197230000Y-134855000D01*
X197230000Y-134855000D02*
X195900000Y-134855000D01*
X194570000Y-132255000D02*
X194570000Y-127115000D01*
X197230000Y-127115000D02*
X194570000Y-127115000D01*
X197230000Y-132255000D02*
X197230000Y-127115000D01*
X197230000Y-132255000D02*
X194570000Y-132255000D01*
%TO.C,C603*%
X149560000Y-122009420D02*
X149560000Y-122290580D01*
X148540000Y-122009420D02*
X148540000Y-122290580D01*
%TO.C,C601*%
X130960030Y-122488781D02*
X130761219Y-122289970D01*
X130238781Y-123210030D02*
X130039970Y-123011219D01*
%TO.C,R6*%
X183577500Y-100362742D02*
X183577500Y-100837258D01*
X184622500Y-100362742D02*
X184622500Y-100837258D01*
%TO.C,U602*%
X173390000Y-88290000D02*
X174650000Y-88290000D01*
X180210000Y-92050000D02*
X180210000Y-88290000D01*
X173390000Y-94300000D02*
X173390000Y-88290000D01*
X180210000Y-88290000D02*
X178950000Y-88290000D01*
%TO.C,C334*%
X152190580Y-124010000D02*
X151909420Y-124010000D01*
X152190580Y-122990000D02*
X151909420Y-122990000D01*
%TO.C,R21*%
X192222500Y-110962742D02*
X192222500Y-111437258D01*
X191177500Y-110962742D02*
X191177500Y-111437258D01*
%TO.C,R16*%
X183177500Y-110962742D02*
X183177500Y-111437258D01*
X184222500Y-110962742D02*
X184222500Y-111437258D01*
%TO.C,R1*%
X176622500Y-100362742D02*
X176622500Y-100837258D01*
X175577500Y-100362742D02*
X175577500Y-100837258D01*
D15*
%TO.C,J1*%
X211976000Y-86817500D02*
G75*
G03*
X211976000Y-86817500I-2286000J0D01*
G01*
X211976000Y-143332500D02*
G75*
G03*
X211976000Y-143332500I-2286000J0D01*
G01*
D16*
X190640000Y-153810000D02*
X109360000Y-153810000D01*
D17*
X190640000Y-144920000D02*
X190640000Y-153810000D01*
X109360000Y-153810000D02*
X109360000Y-144920000D01*
X190640000Y-144920000D02*
X109360000Y-144920000D01*
D14*
%TO.C,C602*%
X137510000Y-115109420D02*
X137510000Y-115390580D01*
X136490000Y-115109420D02*
X136490000Y-115390580D01*
%TO.C,R17*%
X184777500Y-110962742D02*
X184777500Y-111437258D01*
X185822500Y-110962742D02*
X185822500Y-111437258D01*
%TO.C,C604*%
X175809420Y-117860000D02*
X176090580Y-117860000D01*
X175809420Y-116840000D02*
X176090580Y-116840000D01*
%TO.C,R5*%
X181977500Y-100362742D02*
X181977500Y-100837258D01*
X183022500Y-100362742D02*
X183022500Y-100837258D01*
%TO.C,C609*%
X174310000Y-100540580D02*
X174310000Y-100259420D01*
X173290000Y-100540580D02*
X173290000Y-100259420D01*
%TO.C,R15*%
X182622500Y-110962742D02*
X182622500Y-111437258D01*
X181577500Y-110962742D02*
X181577500Y-111437258D01*
%TO.C,C802*%
X174240000Y-96609420D02*
X174240000Y-96890580D01*
X175260000Y-96609420D02*
X175260000Y-96890580D01*
%TO.C,C622*%
X179809420Y-95390000D02*
X180090580Y-95390000D01*
X179809420Y-96410000D02*
X180090580Y-96410000D01*
%TO.C,J701*%
X123730000Y-97112800D02*
X123730000Y-99772800D01*
X123730000Y-97112800D02*
X121130000Y-97112800D01*
X123730000Y-99772800D02*
X121130000Y-99772800D01*
X126330000Y-97112800D02*
X126330000Y-98442800D01*
X125000000Y-97112800D02*
X126330000Y-97112800D01*
X121130000Y-97112800D02*
X121130000Y-99772800D01*
%TO.C,C606*%
X139310000Y-115109420D02*
X139310000Y-115390580D01*
X138290000Y-115109420D02*
X138290000Y-115390580D01*
%TO.C,J702*%
X116330000Y-104730000D02*
X113670000Y-104730000D01*
X116330000Y-107330000D02*
X115000000Y-107330000D01*
X116330000Y-104730000D02*
X116330000Y-94510000D01*
X116330000Y-94510000D02*
X113670000Y-94510000D01*
X116330000Y-106000000D02*
X116330000Y-107330000D01*
X113670000Y-104730000D02*
X113670000Y-94510000D01*
%TO.C,R14*%
X190662742Y-103077500D02*
X191137258Y-103077500D01*
X190662742Y-104122500D02*
X191137258Y-104122500D01*
%TO.C,C608*%
X171490000Y-89759420D02*
X171490000Y-90040580D01*
X172510000Y-89759420D02*
X172510000Y-90040580D01*
%TO.C,J4*%
X160730000Y-88270000D02*
X163330000Y-88270000D01*
X160730000Y-85670000D02*
X160730000Y-88270000D01*
X163330000Y-85670000D02*
X163330000Y-87000000D01*
X160730000Y-85670000D02*
X112410000Y-85670000D01*
X162000000Y-85670000D02*
X163330000Y-85670000D01*
X163330000Y-88270000D02*
X163330000Y-90870000D01*
X163330000Y-90870000D02*
X112410000Y-90870000D01*
X112410000Y-85670000D02*
X112410000Y-90870000D01*
%TO.C,R8*%
X184222500Y-105662742D02*
X184222500Y-106137258D01*
X183177500Y-105662742D02*
X183177500Y-106137258D01*
%TO.C,R7*%
X185177500Y-100362742D02*
X185177500Y-100837258D01*
X186222500Y-100362742D02*
X186222500Y-100837258D01*
%TO.C,R19*%
X189022500Y-110962742D02*
X189022500Y-111437258D01*
X187977500Y-110962742D02*
X187977500Y-111437258D01*
%TO.C,R13*%
X192222500Y-105662742D02*
X192222500Y-106137258D01*
X191177500Y-105662742D02*
X191177500Y-106137258D01*
%TO.C,R4*%
X180377500Y-100362742D02*
X180377500Y-100837258D01*
X181422500Y-100362742D02*
X181422500Y-100837258D01*
%TO.C,C605*%
X129590580Y-100202011D02*
X129309420Y-100202011D01*
X129590580Y-101222011D02*
X129309420Y-101222011D01*
%TO.C,R20*%
X190622500Y-110962742D02*
X190622500Y-111437258D01*
X189577500Y-110962742D02*
X189577500Y-111437258D01*
%TO.C,R2*%
X177177500Y-100362742D02*
X177177500Y-100837258D01*
X178222500Y-100362742D02*
X178222500Y-100837258D01*
%TO.C,C607*%
X182109420Y-92840000D02*
X182390580Y-92840000D01*
X182109420Y-93860000D02*
X182390580Y-93860000D01*
%TO.C,U601*%
X128090000Y-114090000D02*
X129350000Y-114090000D01*
X134910000Y-117850000D02*
X134910000Y-114090000D01*
X128090000Y-120100000D02*
X128090000Y-114090000D01*
X134910000Y-114090000D02*
X133650000Y-114090000D01*
%TO.C,C801*%
X177390580Y-98760000D02*
X177109420Y-98760000D01*
X177390580Y-97740000D02*
X177109420Y-97740000D01*
%TO.C,C333*%
X161488781Y-97560030D02*
X161289970Y-97361219D01*
X162210030Y-96838781D02*
X162011219Y-96639970D01*
%TO.C,R3*%
X179822500Y-100362742D02*
X179822500Y-100837258D01*
X178777500Y-100362742D02*
X178777500Y-100837258D01*
%TO.C,R18*%
X187422500Y-110962742D02*
X187422500Y-111437258D01*
X186377500Y-110962742D02*
X186377500Y-111437258D01*
%TO.C,R11*%
X189022500Y-105662742D02*
X189022500Y-106137258D01*
X187977500Y-105662742D02*
X187977500Y-106137258D01*
%TO.C,R10*%
X186377500Y-105662742D02*
X186377500Y-106137258D01*
X187422500Y-105662742D02*
X187422500Y-106137258D01*
%TD*%
D18*
%TO.C,J1*%
X209690000Y-143332500D03*
X209690000Y-86817500D03*
%TD*%
M02*
