%TF.GenerationSoftware,KiCad,Pcbnew,(6.0.5)*%
%TF.CreationDate,2023-02-09T13:46:48+02:00*%
%TF.ProjectId,minifp,6d696e69-6670-42e6-9b69-6361645f7063,rev?*%
%TF.SameCoordinates,Original*%
%TF.FileFunction,Soldermask,Bot*%
%TF.FilePolarity,Negative*%
%FSLAX46Y46*%
G04 Gerber Fmt 4.6, Leading zero omitted, Abs format (unit mm)*
G04 Created by KiCad (PCBNEW (6.0.5)) date 2023-02-09 13:46:48*
%MOMM*%
%LPD*%
G01*
G04 APERTURE LIST*
G04 Aperture macros list*
%AMRoundRect*
0 Rectangle with rounded corners*
0 $1 Rounding radius*
0 $2 $3 $4 $5 $6 $7 $8 $9 X,Y pos of 4 corners*
0 Add a 4 corners polygon primitive as box body*
4,1,4,$2,$3,$4,$5,$6,$7,$8,$9,$2,$3,0*
0 Add four circle primitives for the rounded corners*
1,1,$1+$1,$2,$3*
1,1,$1+$1,$4,$5*
1,1,$1+$1,$6,$7*
1,1,$1+$1,$8,$9*
0 Add four rect primitives between the rounded corners*
20,1,$1+$1,$2,$3,$4,$5,0*
20,1,$1+$1,$4,$5,$6,$7,0*
20,1,$1+$1,$6,$7,$8,$9,0*
20,1,$1+$1,$8,$9,$2,$3,0*%
G04 Aperture macros list end*
%ADD10C,1.650000*%
%ADD11C,4.575000*%
%ADD12C,1.950000*%
%ADD13C,2.400000*%
%ADD14R,1.700000X1.700000*%
%ADD15O,1.700000X1.700000*%
%ADD16R,1.778000X7.620000*%
%ADD17C,4.064000*%
%ADD18RoundRect,0.225000X-0.250000X0.225000X-0.250000X-0.225000X0.250000X-0.225000X0.250000X0.225000X0*%
%ADD19RoundRect,0.225000X-0.335876X-0.017678X-0.017678X-0.335876X0.335876X0.017678X0.017678X0.335876X0*%
%ADD20RoundRect,0.225000X0.225000X0.250000X-0.225000X0.250000X-0.225000X-0.250000X0.225000X-0.250000X0*%
G04 APERTURE END LIST*
D10*
%TO.C,J401*%
X199000000Y-102000000D03*
X199000000Y-104290000D03*
X199000000Y-106580000D03*
X199000000Y-108870000D03*
X199000000Y-111160000D03*
X201540000Y-100855000D03*
X201540000Y-103145000D03*
X201540000Y-105435000D03*
X201540000Y-107725000D03*
X201540000Y-110015000D03*
X204080000Y-102000000D03*
X204080000Y-104290000D03*
X204080000Y-106580000D03*
X204080000Y-108870000D03*
X204080000Y-111160000D03*
D11*
X201540000Y-93512000D03*
X201540000Y-118502000D03*
%TD*%
D12*
%TO.C,J123*%
X210000000Y-131200000D03*
X205000000Y-126200000D03*
X205000000Y-136200000D03*
D13*
X210000000Y-136200000D03*
X210000000Y-126200000D03*
X205000000Y-131200000D03*
%TD*%
D14*
%TO.C,J301*%
X195900000Y-133525000D03*
D15*
X195900000Y-130985000D03*
X195900000Y-128445000D03*
%TD*%
D16*
%TO.C,J1*%
X111900000Y-150000000D03*
X114440000Y-150000000D03*
X116980000Y-150000000D03*
X119520000Y-150000000D03*
X122060000Y-150000000D03*
X124600000Y-150000000D03*
X127140000Y-150000000D03*
X129680000Y-150000000D03*
X132220000Y-150000000D03*
X134760000Y-150000000D03*
X137300000Y-150000000D03*
X139840000Y-150000000D03*
X142380000Y-150000000D03*
X144920000Y-150000000D03*
X147460000Y-150000000D03*
X150000000Y-150000000D03*
X152540000Y-150000000D03*
X155080000Y-150000000D03*
X157620000Y-150000000D03*
X160160000Y-150000000D03*
X162700000Y-150000000D03*
X165240000Y-150000000D03*
X167780000Y-150000000D03*
X170320000Y-150000000D03*
X172860000Y-150000000D03*
X175400000Y-150000000D03*
X177940000Y-150000000D03*
X180480000Y-150000000D03*
X183020000Y-150000000D03*
X185560000Y-150000000D03*
D17*
X209690000Y-143332500D03*
D16*
X188100000Y-150000000D03*
D17*
X209690000Y-86817500D03*
%TD*%
D14*
%TO.C,J701*%
X125000000Y-98442800D03*
D15*
X122460000Y-98442800D03*
%TD*%
D14*
%TO.C,J702*%
X115000000Y-106000000D03*
D15*
X115000000Y-103460000D03*
X115000000Y-100920000D03*
X115000000Y-98380000D03*
X115000000Y-95840000D03*
%TD*%
D14*
%TO.C,J4*%
X162000000Y-87000000D03*
D15*
X162000000Y-89540000D03*
X159460000Y-87000000D03*
X159460000Y-89540000D03*
X156920000Y-87000000D03*
X156920000Y-89540000D03*
X154380000Y-87000000D03*
X154380000Y-89540000D03*
X151840000Y-87000000D03*
X151840000Y-89540000D03*
X149300000Y-87000000D03*
X149300000Y-89540000D03*
X146760000Y-87000000D03*
X146760000Y-89540000D03*
X144220000Y-87000000D03*
X144220000Y-89540000D03*
X141680000Y-87000000D03*
X141680000Y-89540000D03*
X139140000Y-87000000D03*
X139140000Y-89540000D03*
X136600000Y-87000000D03*
X136600000Y-89540000D03*
X134060000Y-87000000D03*
X134060000Y-89540000D03*
X131520000Y-87000000D03*
X131520000Y-89540000D03*
X128980000Y-87000000D03*
X128980000Y-89540000D03*
X126440000Y-87000000D03*
X126440000Y-89540000D03*
X123900000Y-87000000D03*
X123900000Y-89540000D03*
X121360000Y-87000000D03*
X121360000Y-89540000D03*
X118820000Y-87000000D03*
X118820000Y-89540000D03*
X116280000Y-87000000D03*
X116280000Y-89540000D03*
X113740000Y-87000000D03*
X113740000Y-89540000D03*
%TD*%
D18*
%TO.C,C901*%
X163300000Y-118475000D03*
X163300000Y-116925000D03*
%TD*%
D19*
%TO.C,C904*%
X170651992Y-105651992D03*
X171748008Y-106748008D03*
%TD*%
%TO.C,C903*%
X159751992Y-104551992D03*
X160848008Y-105648008D03*
%TD*%
D20*
%TO.C,C902*%
X162575000Y-107800000D03*
X161025000Y-107800000D03*
%TD*%
M02*
