%TF.GenerationSoftware,KiCad,Pcbnew,(6.0.5)*%
%TF.CreationDate,2023-02-09T13:46:48+02:00*%
%TF.ProjectId,minifp,6d696e69-6670-42e6-9b69-6361645f7063,rev?*%
%TF.SameCoordinates,Original*%
%TF.FileFunction,Soldermask,Top*%
%TF.FilePolarity,Negative*%
%FSLAX46Y46*%
G04 Gerber Fmt 4.6, Leading zero omitted, Abs format (unit mm)*
G04 Created by KiCad (PCBNEW (6.0.5)) date 2023-02-09 13:46:48*
%MOMM*%
%LPD*%
G01*
G04 APERTURE LIST*
G04 Aperture macros list*
%AMRoundRect*
0 Rectangle with rounded corners*
0 $1 Rounding radius*
0 $2 $3 $4 $5 $6 $7 $8 $9 X,Y pos of 4 corners*
0 Add a 4 corners polygon primitive as box body*
4,1,4,$2,$3,$4,$5,$6,$7,$8,$9,$2,$3,0*
0 Add four circle primitives for the rounded corners*
1,1,$1+$1,$2,$3*
1,1,$1+$1,$4,$5*
1,1,$1+$1,$6,$7*
1,1,$1+$1,$8,$9*
0 Add four rect primitives between the rounded corners*
20,1,$1+$1,$2,$3,$4,$5,0*
20,1,$1+$1,$4,$5,$6,$7,0*
20,1,$1+$1,$6,$7,$8,$9,0*
20,1,$1+$1,$8,$9,$2,$3,0*%
G04 Aperture macros list end*
%ADD10R,1.000000X1.400000*%
%ADD11C,1.650000*%
%ADD12C,4.575000*%
%ADD13C,1.950000*%
%ADD14C,2.400000*%
%ADD15R,0.650000X1.500000*%
%ADD16RoundRect,0.200000X-0.275000X0.200000X-0.275000X-0.200000X0.275000X-0.200000X0.275000X0.200000X0*%
%ADD17RoundRect,0.075000X0.662500X0.075000X-0.662500X0.075000X-0.662500X-0.075000X0.662500X-0.075000X0*%
%ADD18RoundRect,0.075000X0.075000X0.662500X-0.075000X0.662500X-0.075000X-0.662500X0.075000X-0.662500X0*%
%ADD19RoundRect,0.200000X0.275000X-0.200000X0.275000X0.200000X-0.275000X0.200000X-0.275000X-0.200000X0*%
%ADD20R,1.700000X1.700000*%
%ADD21O,1.700000X1.700000*%
%ADD22RoundRect,0.225000X-0.250000X0.225000X-0.250000X-0.225000X0.250000X-0.225000X0.250000X0.225000X0*%
%ADD23RoundRect,0.225000X0.335876X0.017678X0.017678X0.335876X-0.335876X-0.017678X-0.017678X-0.335876X0*%
%ADD24R,1.500000X2.000000*%
%ADD25R,3.800000X2.000000*%
%ADD26RoundRect,0.225000X0.225000X0.250000X-0.225000X0.250000X-0.225000X-0.250000X0.225000X-0.250000X0*%
%ADD27R,1.778000X7.620000*%
%ADD28C,4.064000*%
%ADD29RoundRect,0.225000X-0.225000X-0.250000X0.225000X-0.250000X0.225000X0.250000X-0.225000X0.250000X0*%
%ADD30RoundRect,0.225000X0.250000X-0.225000X0.250000X0.225000X-0.250000X0.225000X-0.250000X-0.225000X0*%
%ADD31RoundRect,0.200000X-0.200000X-0.275000X0.200000X-0.275000X0.200000X0.275000X-0.200000X0.275000X0*%
G04 APERTURE END LIST*
D10*
%TO.C,Y1*%
X131200000Y-106500000D03*
X131200000Y-108700000D03*
X132800000Y-108700000D03*
X132800000Y-106500000D03*
%TD*%
D11*
%TO.C,J401*%
X199000000Y-102000000D03*
X199000000Y-104290000D03*
X199000000Y-106580000D03*
X199000000Y-108870000D03*
X199000000Y-111160000D03*
X201540000Y-100855000D03*
X201540000Y-103145000D03*
X201540000Y-105435000D03*
X201540000Y-107725000D03*
X201540000Y-110015000D03*
X204080000Y-102000000D03*
X204080000Y-104290000D03*
X204080000Y-106580000D03*
X204080000Y-108870000D03*
X204080000Y-111160000D03*
D12*
X201540000Y-93512000D03*
X201540000Y-118502000D03*
%TD*%
D13*
%TO.C,J123*%
X210000000Y-131200000D03*
X205000000Y-126200000D03*
X205000000Y-136200000D03*
D14*
X210000000Y-136200000D03*
X210000000Y-126200000D03*
X205000000Y-131200000D03*
%TD*%
D15*
%TO.C,IC102*%
X141405000Y-104900000D03*
X140135000Y-104900000D03*
X138865000Y-104900000D03*
X137595000Y-104900000D03*
X137595000Y-110300000D03*
X138865000Y-110300000D03*
X140135000Y-110300000D03*
X141405000Y-110300000D03*
%TD*%
D16*
%TO.C,R12*%
X190100000Y-106725000D03*
X190100000Y-105075000D03*
%TD*%
D17*
%TO.C,U1*%
X171662500Y-119450000D03*
X171662500Y-118950000D03*
X171662500Y-118450000D03*
X171662500Y-117950000D03*
X171662500Y-117450000D03*
X171662500Y-116950000D03*
X171662500Y-116450000D03*
X171662500Y-115950000D03*
X171662500Y-115450000D03*
X171662500Y-114950000D03*
X171662500Y-114450000D03*
X171662500Y-113950000D03*
X171662500Y-113450000D03*
X171662500Y-112950000D03*
X171662500Y-112450000D03*
X171662500Y-111950000D03*
X171662500Y-111450000D03*
X171662500Y-110950000D03*
X171662500Y-110450000D03*
X171662500Y-109950000D03*
X171662500Y-109450000D03*
X171662500Y-108950000D03*
X171662500Y-108450000D03*
X171662500Y-107950000D03*
X171662500Y-107450000D03*
X171662500Y-106950000D03*
X171662500Y-106450000D03*
X171662500Y-105950000D03*
X171662500Y-105450000D03*
X171662500Y-104950000D03*
X171662500Y-104450000D03*
X171662500Y-103950000D03*
X171662500Y-103450000D03*
X171662500Y-102950000D03*
X171662500Y-102450000D03*
X171662500Y-101950000D03*
D18*
X169750000Y-100037500D03*
X169250000Y-100037500D03*
X168750000Y-100037500D03*
X168250000Y-100037500D03*
X167750000Y-100037500D03*
X167250000Y-100037500D03*
X166750000Y-100037500D03*
X166250000Y-100037500D03*
X165750000Y-100037500D03*
X165250000Y-100037500D03*
X164750000Y-100037500D03*
X164250000Y-100037500D03*
X163750000Y-100037500D03*
X163250000Y-100037500D03*
X162750000Y-100037500D03*
X162250000Y-100037500D03*
X161750000Y-100037500D03*
X161250000Y-100037500D03*
X160750000Y-100037500D03*
X160250000Y-100037500D03*
X159750000Y-100037500D03*
X159250000Y-100037500D03*
X158750000Y-100037500D03*
X158250000Y-100037500D03*
X157750000Y-100037500D03*
X157250000Y-100037500D03*
X156750000Y-100037500D03*
X156250000Y-100037500D03*
X155750000Y-100037500D03*
X155250000Y-100037500D03*
X154750000Y-100037500D03*
X154250000Y-100037500D03*
X153750000Y-100037500D03*
X153250000Y-100037500D03*
X152750000Y-100037500D03*
X152250000Y-100037500D03*
D17*
X150337500Y-101950000D03*
X150337500Y-102450000D03*
X150337500Y-102950000D03*
X150337500Y-103450000D03*
X150337500Y-103950000D03*
X150337500Y-104450000D03*
X150337500Y-104950000D03*
X150337500Y-105450000D03*
X150337500Y-105950000D03*
X150337500Y-106450000D03*
X150337500Y-106950000D03*
X150337500Y-107450000D03*
X150337500Y-107950000D03*
X150337500Y-108450000D03*
X150337500Y-108950000D03*
X150337500Y-109450000D03*
X150337500Y-109950000D03*
X150337500Y-110450000D03*
X150337500Y-110950000D03*
X150337500Y-111450000D03*
X150337500Y-111950000D03*
X150337500Y-112450000D03*
X150337500Y-112950000D03*
X150337500Y-113450000D03*
X150337500Y-113950000D03*
X150337500Y-114450000D03*
X150337500Y-114950000D03*
X150337500Y-115450000D03*
X150337500Y-115950000D03*
X150337500Y-116450000D03*
X150337500Y-116950000D03*
X150337500Y-117450000D03*
X150337500Y-117950000D03*
X150337500Y-118450000D03*
X150337500Y-118950000D03*
X150337500Y-119450000D03*
D18*
X152250000Y-121362500D03*
X152750000Y-121362500D03*
X153250000Y-121362500D03*
X153750000Y-121362500D03*
X154250000Y-121362500D03*
X154750000Y-121362500D03*
X155250000Y-121362500D03*
X155750000Y-121362500D03*
X156250000Y-121362500D03*
X156750000Y-121362500D03*
X157250000Y-121362500D03*
X157750000Y-121362500D03*
X158250000Y-121362500D03*
X158750000Y-121362500D03*
X159250000Y-121362500D03*
X159750000Y-121362500D03*
X160250000Y-121362500D03*
X160750000Y-121362500D03*
X161250000Y-121362500D03*
X161750000Y-121362500D03*
X162250000Y-121362500D03*
X162750000Y-121362500D03*
X163250000Y-121362500D03*
X163750000Y-121362500D03*
X164250000Y-121362500D03*
X164750000Y-121362500D03*
X165250000Y-121362500D03*
X165750000Y-121362500D03*
X166250000Y-121362500D03*
X166750000Y-121362500D03*
X167250000Y-121362500D03*
X167750000Y-121362500D03*
X168250000Y-121362500D03*
X168750000Y-121362500D03*
X169250000Y-121362500D03*
X169750000Y-121362500D03*
%TD*%
D16*
%TO.C,R9*%
X185300000Y-105075000D03*
X185300000Y-106725000D03*
%TD*%
D19*
%TO.C,R100*%
X173000000Y-97575000D03*
X173000000Y-95925000D03*
%TD*%
D20*
%TO.C,J301*%
X195900000Y-133525000D03*
D21*
X195900000Y-130985000D03*
X195900000Y-128445000D03*
%TD*%
D22*
%TO.C,C603*%
X149050000Y-121375000D03*
X149050000Y-122925000D03*
%TD*%
D23*
%TO.C,C601*%
X131048008Y-123298008D03*
X129951992Y-122201992D03*
%TD*%
D16*
%TO.C,R6*%
X184100000Y-99775000D03*
X184100000Y-101425000D03*
%TD*%
D24*
%TO.C,U602*%
X179100000Y-93350000D03*
X176800000Y-93350000D03*
D25*
X176800000Y-87050000D03*
D24*
X174500000Y-93350000D03*
%TD*%
D26*
%TO.C,C334*%
X152825000Y-123500000D03*
X151275000Y-123500000D03*
%TD*%
D16*
%TO.C,R21*%
X191700000Y-110375000D03*
X191700000Y-112025000D03*
%TD*%
%TO.C,R16*%
X183700000Y-110375000D03*
X183700000Y-112025000D03*
%TD*%
%TO.C,R1*%
X176100000Y-99775000D03*
X176100000Y-101425000D03*
%TD*%
D27*
%TO.C,J1*%
X111900000Y-150000000D03*
X114440000Y-150000000D03*
X116980000Y-150000000D03*
X119520000Y-150000000D03*
X122060000Y-150000000D03*
X124600000Y-150000000D03*
X127140000Y-150000000D03*
X129680000Y-150000000D03*
X132220000Y-150000000D03*
X134760000Y-150000000D03*
X137300000Y-150000000D03*
X139840000Y-150000000D03*
X142380000Y-150000000D03*
X144920000Y-150000000D03*
X147460000Y-150000000D03*
X150000000Y-150000000D03*
X152540000Y-150000000D03*
X155080000Y-150000000D03*
X157620000Y-150000000D03*
X160160000Y-150000000D03*
X162700000Y-150000000D03*
X165240000Y-150000000D03*
X167780000Y-150000000D03*
X170320000Y-150000000D03*
X172860000Y-150000000D03*
X175400000Y-150000000D03*
X177940000Y-150000000D03*
X180480000Y-150000000D03*
X183020000Y-150000000D03*
X185560000Y-150000000D03*
X188100000Y-150000000D03*
D28*
X209690000Y-143332500D03*
X209690000Y-86817500D03*
%TD*%
D22*
%TO.C,C602*%
X137000000Y-114475000D03*
X137000000Y-116025000D03*
%TD*%
D16*
%TO.C,R17*%
X185300000Y-110375000D03*
X185300000Y-112025000D03*
%TD*%
D29*
%TO.C,C604*%
X175175000Y-117350000D03*
X176725000Y-117350000D03*
%TD*%
D16*
%TO.C,R5*%
X182500000Y-99775000D03*
X182500000Y-101425000D03*
%TD*%
D30*
%TO.C,C609*%
X173800000Y-101175000D03*
X173800000Y-99625000D03*
%TD*%
D16*
%TO.C,R15*%
X182100000Y-112025000D03*
X182100000Y-110375000D03*
%TD*%
D22*
%TO.C,C802*%
X174750000Y-95975000D03*
X174750000Y-97525000D03*
%TD*%
D29*
%TO.C,C622*%
X179175000Y-95900000D03*
X180725000Y-95900000D03*
%TD*%
D20*
%TO.C,J701*%
X125000000Y-98442800D03*
D21*
X122460000Y-98442800D03*
%TD*%
D22*
%TO.C,C606*%
X138800000Y-114475000D03*
X138800000Y-116025000D03*
%TD*%
D20*
%TO.C,J702*%
X115000000Y-106000000D03*
D21*
X115000000Y-103460000D03*
X115000000Y-100920000D03*
X115000000Y-98380000D03*
X115000000Y-95840000D03*
%TD*%
D31*
%TO.C,R14*%
X190075000Y-103600000D03*
X191725000Y-103600000D03*
%TD*%
D22*
%TO.C,C608*%
X172000000Y-90675000D03*
X172000000Y-89125000D03*
%TD*%
D20*
%TO.C,J4*%
X162000000Y-87000000D03*
D21*
X162000000Y-89540000D03*
X159460000Y-87000000D03*
X159460000Y-89540000D03*
X156920000Y-87000000D03*
X156920000Y-89540000D03*
X154380000Y-87000000D03*
X154380000Y-89540000D03*
X151840000Y-87000000D03*
X151840000Y-89540000D03*
X149300000Y-87000000D03*
X149300000Y-89540000D03*
X146760000Y-87000000D03*
X146760000Y-89540000D03*
X144220000Y-87000000D03*
X144220000Y-89540000D03*
X141680000Y-87000000D03*
X141680000Y-89540000D03*
X139140000Y-87000000D03*
X139140000Y-89540000D03*
X136600000Y-87000000D03*
X136600000Y-89540000D03*
X134060000Y-87000000D03*
X134060000Y-89540000D03*
X131520000Y-87000000D03*
X131520000Y-89540000D03*
X128980000Y-87000000D03*
X128980000Y-89540000D03*
X126440000Y-87000000D03*
X126440000Y-89540000D03*
X123900000Y-87000000D03*
X123900000Y-89540000D03*
X121360000Y-87000000D03*
X121360000Y-89540000D03*
X118820000Y-87000000D03*
X118820000Y-89540000D03*
X116280000Y-87000000D03*
X116280000Y-89540000D03*
X113740000Y-87000000D03*
X113740000Y-89540000D03*
%TD*%
D16*
%TO.C,R8*%
X183700000Y-105075000D03*
X183700000Y-106725000D03*
%TD*%
%TO.C,R7*%
X185700000Y-99775000D03*
X185700000Y-101425000D03*
%TD*%
%TO.C,R19*%
X188500000Y-110375000D03*
X188500000Y-112025000D03*
%TD*%
%TO.C,R13*%
X191700000Y-106725000D03*
X191700000Y-105075000D03*
%TD*%
%TO.C,R4*%
X180900000Y-99775000D03*
X180900000Y-101425000D03*
%TD*%
D26*
%TO.C,C605*%
X130225000Y-100712011D03*
X128675000Y-100712011D03*
%TD*%
D16*
%TO.C,R20*%
X190100000Y-112025000D03*
X190100000Y-110375000D03*
%TD*%
%TO.C,R2*%
X177700000Y-99775000D03*
X177700000Y-101425000D03*
%TD*%
D29*
%TO.C,C607*%
X181475000Y-93350000D03*
X183025000Y-93350000D03*
%TD*%
D24*
%TO.C,U601*%
X129200000Y-119150000D03*
D25*
X131500000Y-112850000D03*
D24*
X131500000Y-119150000D03*
X133800000Y-119150000D03*
%TD*%
D26*
%TO.C,C801*%
X178025000Y-98250000D03*
X176475000Y-98250000D03*
%TD*%
D23*
%TO.C,C333*%
X162298008Y-97648008D03*
X161201992Y-96551992D03*
%TD*%
D16*
%TO.C,R3*%
X179300000Y-99775000D03*
X179300000Y-101425000D03*
%TD*%
%TO.C,R18*%
X186900000Y-112025000D03*
X186900000Y-110375000D03*
%TD*%
%TO.C,R11*%
X188500000Y-106725000D03*
X188500000Y-105075000D03*
%TD*%
%TO.C,R10*%
X186900000Y-105075000D03*
X186900000Y-106725000D03*
%TD*%
M02*
