M48
; DRILL file {KiCad (6.0.5)} date Thu Feb  9 13:46:29 2023
; FORMAT={-:-/ absolute / inch / decimal}
; #@! TF.CreationDate,2023-02-09T13:46:29+02:00
; #@! TF.GenerationSoftware,Kicad,Pcbnew,(6.0.5)
; #@! TF.FileFunction,Plated,1,2,PTH
FMAT,2
INCH
; #@! TA.AperFunction,Plated,PTH,ViaDrill
T1C0.0157
; #@! TA.AperFunction,Plated,PTH,ViaDrill
T2C0.0197
; #@! TA.AperFunction,Plated,PTH,ComponentDrill
T3C0.0394
; #@! TA.AperFunction,Plated,PTH,ComponentDrill
T4C0.0433
; #@! TA.AperFunction,Plated,PTH,ComponentDrill
T5C0.0512
; #@! TA.AperFunction,Plated,PTH,ComponentDrill
T6C0.0630
; #@! TA.AperFunction,Plated,PTH,ComponentDrill
T7C0.1200
; #@! TA.AperFunction,Plated,PTH,ComponentDrill
T8C0.1201
%
G90
G05
T1
X4.9055Y-4.3386
X4.934Y-4.4016
X4.9626Y-4.3386
X4.9911Y-4.4016
X5.0394Y-4.1063
X5.0591Y-4.1732
X5.0591Y-4.3012
X5.1772Y-3.965
X5.1772Y-4.124
X5.3346Y-4.1063
X5.3346Y-4.3012
X5.3465Y-4.3976
X5.5433Y-4.2874
X5.6142Y-4.3976
X5.6427Y-4.1427
X5.689Y-4.1535
X5.7283Y-4.1929
X5.7677Y-4.2126
X5.8386Y-4.2559
X5.9921Y-4.5748
X5.9921Y-4.6181
X5.9961Y-4.0197
X5.9961Y-4.063
X6.0118Y-4.5394
X6.0354Y-4.122
X6.0472Y-4.5197
X6.0728Y-4.063
X6.0787Y-4.4961
X6.1024Y-4.4646
X6.1122Y-4.0472
X6.122Y-4.0039
X6.1575Y-4.0236
X6.185Y-4.0542
X6.2608Y-4.1506
X6.3268Y-3.5709
X6.4016Y-4.2795
X6.4094Y-3.7598
X6.4665Y-3.4252
X6.4764Y-4.2323
X6.5157Y-3.815
X6.5354Y-4.2913
X6.5472Y-3.5827
X6.563Y-4.1161
X6.6142Y-4.685
X6.6535Y-4.5472
X6.6732Y-4.685
X6.6791Y-4.1161
X6.6831Y-4.2913
X6.7913Y-3.9724
X6.8425Y-3.8858
X7.9331Y-4.9016
X7.9921Y-4.8425
T2
X4.4291Y-3.8386
X4.4291Y-4.0354
X4.4291Y-4.2323
X4.4291Y-4.4291
X4.4291Y-4.626
X4.4291Y-4.8228
X4.4291Y-5.0197
X4.4291Y-5.2165
X4.6055Y-5.4142
X4.626Y-4.0354
X4.626Y-4.2323
X4.626Y-4.626
X4.626Y-4.8228
X4.626Y-5.0197
X4.626Y-5.2165
X4.8228Y-3.6417
X4.8228Y-3.7402
X4.8228Y-4.0354
X4.8228Y-4.4291
X4.8228Y-4.626
X4.8228Y-4.8228
X4.8228Y-5.0197
X4.9213Y-3.7402
X5.0866Y-4.5709
X5.1772Y-4.3701
X5.2165Y-5.4134
X5.315Y-5.315
X5.315Y-5.5118
X5.3346Y-4.2362
X5.3346Y-4.5669
X5.3346Y-4.626
X5.3346Y-4.685
X5.3937Y-4.626
X5.4134Y-5.2165
X5.4134Y-5.4134
X5.5118Y-5.315
X5.5906Y-4.5669
X5.5906Y-4.9213
X5.5906Y-5.0787
X5.6299Y-3.9173
X5.8268Y-4.5079
X5.8268Y-4.9213
X5.8268Y-5.0787
X5.8819Y-3.9173
X5.9188Y-4.7781
X5.9843Y-4.3287
X6.1417Y-4.3583
X6.2283Y-4.0039
X6.2598Y-4.3701
X6.2598Y-4.4488
X6.2598Y-4.5276
X6.2874Y-4.0276
X6.3209Y-4.6043
X6.3268Y-3.7815
X6.3386Y-4.3701
X6.3386Y-4.4488
X6.3386Y-4.5276
X6.378Y-4.685
X6.4016Y-4.1417
X6.4173Y-4.4488
X6.4173Y-4.5276
X6.4469Y-4.9508
X6.4961Y-4.5276
X6.5157Y-4.0276
X6.5492Y-4.1909
X6.5748Y-3.5252
X6.5787Y-4.6043
X6.6142Y-4.0157
X6.6142Y-4.3701
X6.6437Y-4.9606
X6.6437Y-5.1476
X6.6831Y-4.1909
X6.7028Y-3.4843
X6.7028Y-3.5531
X6.7323Y-3.8976
X6.7717Y-4.7638
X6.7913Y-3.6417
X6.7913Y-3.7106
X6.8307Y-4.4469
X6.8504Y-3.5827
X6.8504Y-4.8425
X6.8898Y-4.4094
X6.9291Y-4.9213
X6.9488Y-4.7047
X6.9606Y-3.7756
X7.0079Y-4.4094
X7.0079Y-5.0
X7.0236Y-4.6299
X7.1575Y-4.9291
X7.1575Y-5.0984
X7.1575Y-5.6457
X7.185Y-3.4449
X7.185Y-3.8386
X7.185Y-4.8228
X7.2835Y-4.9213
X7.3819Y-3.4449
X7.3819Y-3.6417
X7.3819Y-3.8386
X7.3819Y-4.7244
X7.3819Y-5.0197
X7.4803Y-4.7244
X7.4803Y-4.8228
X7.4803Y-5.1181
X7.4803Y-5.315
X7.4803Y-5.5118
X7.5787Y-3.4449
X7.5787Y-3.6417
X7.5787Y-3.8386
X7.5787Y-4.8228
X7.5787Y-4.9213
X7.6772Y-5.5118
X7.7756Y-3.4449
X7.7756Y-3.8386
X7.874Y-5.315
X7.874Y-5.5118
X8.2677Y-3.6417
X8.2677Y-3.8386
X8.2677Y-4.0354
X8.2677Y-4.2323
X8.2677Y-4.4291
X8.2677Y-4.626
T3
X4.478Y-3.4252
X4.478Y-3.5252
X4.5276Y-3.7732
X4.5276Y-3.8732
X4.5276Y-3.9732
X4.5276Y-4.0732
X4.5276Y-4.1732
X4.578Y-3.4252
X4.578Y-3.5252
X4.678Y-3.4252
X4.678Y-3.5252
X4.778Y-3.4252
X4.778Y-3.5252
X4.8213Y-3.8757
X4.878Y-3.4252
X4.878Y-3.5252
X4.9213Y-3.8757
X4.978Y-3.4252
X4.978Y-3.5252
X5.078Y-3.4252
X5.078Y-3.5252
X5.178Y-3.4252
X5.178Y-3.5252
X5.278Y-3.4252
X5.278Y-3.5252
X5.378Y-3.4252
X5.378Y-3.5252
X5.478Y-3.4252
X5.478Y-3.5252
X5.578Y-3.4252
X5.578Y-3.5252
X5.678Y-3.4252
X5.678Y-3.5252
X5.778Y-3.4252
X5.778Y-3.5252
X5.878Y-3.4252
X5.878Y-3.5252
X5.978Y-3.4252
X5.978Y-3.5252
X6.078Y-3.4252
X6.078Y-3.5252
X6.178Y-3.4252
X6.178Y-3.5252
X6.278Y-3.4252
X6.278Y-3.5252
X6.378Y-3.4252
X6.378Y-3.5252
X7.7126Y-5.0569
X7.7126Y-5.1569
X7.7126Y-5.2569
T4
X7.8346Y-4.0157
X7.8346Y-4.1059
X7.8346Y-4.1961
X7.8346Y-4.2862
X7.8346Y-4.3764
X7.9346Y-3.9707
X7.9346Y-4.0608
X7.9346Y-4.151
X7.9346Y-4.2411
X7.9346Y-4.3313
X8.0346Y-4.0157
X8.0346Y-4.1059
X8.0346Y-4.1961
X8.0346Y-4.2862
X8.0346Y-4.3764
T5
X8.0709Y-4.9685
X8.0709Y-5.3622
X8.2677Y-5.1654
T6
X8.0709Y-5.1654
X8.2677Y-4.9685
X8.2677Y-5.3622
T7
X8.2555Y-3.418
X8.2555Y-5.643
T8
X7.9346Y-3.6816
X7.9346Y-4.6654
T0
M30
